<?xml version="1.0" encoding="UTF-8" standalone="no"?>
<!-- Created with Inkscape (http://www.inkscape.org/) -->

<svg
   version="1.1"
   id="svg1"
   width="798.56464"
   height="939.0387"
   viewBox="0 0 798.56464 939.03868"
   sodipodi:docname="9a.svg"
   inkscape:version="1.3.2 (091e20ef0f, 2023-11-25)"
   xmlns:inkscape="http://www.inkscape.org/namespaces/inkscape"
   xmlns:sodipodi="http://sodipodi.sourceforge.net/DTD/sodipodi-0.dtd"
   xmlns="http://www.w3.org/2000/svg"
   xmlns:svg="http://www.w3.org/2000/svg">
  <defs
     id="defs1" />
  <sodipodi:namedview
     id="namedview1"
     pagecolor="#ffffff"
     bordercolor="#000000"
     borderopacity="0.25"
     inkscape:showpageshadow="2"
     inkscape:pageopacity="0.0"
     inkscape:pagecheckerboard="0"
     inkscape:deskcolor="#d1d1d1"
     showgrid="false"
     inkscape:zoom="0.80392811"
     inkscape:cx="401.15527"
     inkscape:cy="464.59378"
     inkscape:window-width="1920"
     inkscape:window-height="1011"
     inkscape:window-x="0"
     inkscape:window-y="0"
     inkscape:window-maximized="1"
     inkscape:current-layer="layer1" />
  <g
     inkscape:groupmode="layer"
     id="layer1"
     inkscape:label="Layer 1"
     transform="translate(-37.333333,-35.627944)">
    <path
       style="fill:#000000"
       d="m 242.28299,973.67119 c -14.25396,-0.42525 -14.39627,-0.46177 -15.77915,-4.05016 -1.87388,-4.86246 -0.94416,-22.01398 1.34266,-24.76942 1.50561,-1.81416 4.68229,-2.18496 18.71856,-2.18496 h 16.90521 l 12.30319,-7.27017 c 17.34636,-10.25028 34.16295,-22.64496 43.86075,-32.32762 6.66798,-6.65757 9.72056,-11.24986 15.51792,-23.34506 10.91366,-22.76951 12.0362,-27.10656 11.07966,-42.80753 -0.44467,-7.29892 -1.10971,-13.57198 -1.47785,-13.94013 -0.36815,-0.36815 -12.53839,-3.90788 -27.04498,-7.86606 C 218.48223,788.03562 134.97645,754.42073 97.333333,726.39882 85.627118,717.6846 66.500797,698.73891 57.877862,687.31597 48.238933,674.54713 45.398428,667.83821 45.362616,657.7565 c -0.02535,-7.13514 -0.398085,-8.36053 -2.772328,-9.11409 -3.834276,-1.21695 -5.256955,-5.89899 -5.256955,-17.30065 0,-9.82223 0.140028,-10.17646 5.953728,-15.06101 1.21158,-1.01794 2.046272,-3.89367 2.046272,-7.04993 0,-3.6677 2.132121,-9.78666 6.834434,-19.6141 6.958631,-14.54296 8.020737,-17.23117 22.467593,-56.86587 4.527224,-12.42037 9.371664,-24.81775 10.765421,-27.54974 2.543616,-4.98589 5.08983,-11.39148 14.717449,-37.02513 2.85566,-7.6032 6.33255,-15.7032 7.72644,-18 1.39388,-2.29679 2.97875,-6.27178 3.52193,-8.8333 2.62861,-12.39603 31.11642,-81.71093 42.32283,-102.97746 15.28222,-29.00128 24.12909,-42.53722 31.42838,-48.08624 14.42652,-10.96723 22.1336,-25.99642 35.01396,-68.27898 2.90409,-9.53334 7.9121,-25.43334 11.12889,-35.33334 3.2168,-9.9 6.55282,-20.7 7.41337,-24 0.86056,-3.3 3.8588,-12 6.66275,-19.33333 2.80396,-7.33333 7.34674,-19.25008 10.09507,-26.48167 2.74834,-7.23158 9.46292,-20.564584 14.9213,-29.628888 8.2026,-13.621431 11.46161,-17.731185 18.78558,-23.689435 C 300.19635,54.537669 309.47736,48.625199 324,41.324973 l 11.33333,-5.697029 16,0.845511 c 17.94397,0.948239 27.38081,3.056144 35.68533,7.971029 8.23845,4.875782 16.56604,14.023384 18.96451,20.831925 1.15147,3.268693 3.83112,8.668693 5.95477,12 2.32686,3.650075 4.45426,9.500808 5.35369,14.723589 0.82087,4.766667 3.53478,18.866662 6.0309,31.333332 3.68375,18.39815 14.01181,102.67794 14.01097,114.33333 -9e-5,1.28334 0.55011,2.33334 1.22268,2.33334 1.86742,0 3.85334,-11.05895 7.5215,-41.8848 1.84009,-15.46336 4.48135,-35.0152 5.86948,-43.44854 1.38813,-8.43333 3.19022,-20.73333 4.00464,-27.33333 0.81441,-6.6 2.31557,-15 3.33589,-18.66667 1.02033,-3.66666 2.49151,-10.191738 3.2693,-14.500164 0.77778,-4.308427 2.2353,-9.408427 3.23892,-11.333333 6.51463,-12.494809 15.0927,-26.728647 18.05744,-29.963221 1.91399,-2.088198 9.69058,-6.826433 17.28131,-10.529411 12.42984,-6.063635 14.68232,-6.728263 22.66667,-6.688157 12.08606,0.06071 32.07443,3.950282 36.47801,7.098321 1.98698,1.420451 4.04538,2.582637 4.57423,2.582637 1.32678,0 19.8793,12.821686 26.91063,18.597989 13.59718,11.17021 34.21563,50.706519 42.90061,82.262799 1.58525,5.7599 3.9979,12.87254 5.36144,15.80588 1.36354,2.93333 4.00545,10.81527 5.8709,17.51542 1.86546,6.70015 6.14916,19.55342 9.51934,28.56282 3.37018,9.00941 8.22671,23.92747 10.7923,33.15125 8.70518,31.29674 8.50393,30.91761 25.88795,48.7705 18.06228,18.54946 23.56753,27.40396 38.54822,62 11.30508,26.10768 13.42648,30.61994 15.76823,33.53926 1.91778,2.39078 6.8613,15.78846 18.86515,51.12741 4.23464,12.46666 12.94999,36.16666 19.36743,52.66666 14.12731,36.32297 24.29018,63.68826 26.986,72.66445 1.10084,3.66545 4.1199,10.86545 6.70902,16 2.58913,5.13455 5.54937,12.93555 6.57833,17.33555 1.02896,4.4 3.75507,11.3 6.05801,15.33333 3.65037,6.39317 4.26006,8.88969 4.7556,19.47299 0.66946,14.29782 -0.50453,17.38403 -7.08227,18.61802 -4.50657,0.84544 -4.65227,1.06381 -4.70898,7.05738 -0.11266,11.9063 -6.68295,24.2396 -22.71792,42.64457 -17.36742,19.93434 -38.26723,35.70047 -66.20668,49.94411 -34.66866,17.67422 -79.89347,35.12994 -135.01688,52.11336 -28.4461,8.76419 -70.487,20.81624 -72.61282,20.81624 -0.39628,0 -0.72051,6.56424 -0.72051,14.5872 0,16.87995 2.3626,25.06853 13.5542,46.97782 5.29037,10.35672 8.49727,14.71132 16.27447,22.09891 11.40301,10.83174 31.7051,25.27941 45.69872,32.52079 9.9269,5.13695 9.98567,5.14861 25.94572,5.14861 h 15.99629 l 1.93197,4.62384 c 2.96808,7.10363 2.53317,19.58556 -0.83148,23.86301 l -2.76344,3.51315 -192.90323,-0.28318 C 343.47312,974.22772 250.19401,973.9072 242.28299,973.67119 Z M 640,958.66665 v -8 H 436.66667 233.33333 v 7.22222 c 0,4.53021 0.62124,7.47289 1.66667,7.89474 0.91667,0.36988 92.41667,0.71988 203.33333,0.77777 L 640,966.66665 Z m -51.41619,-16.81937 c 1.53795,-0.59017 -1.13561,-3.04999 -9.55762,-8.79354 -16.65058,-11.35519 -29.06974,-21.80201 -35.93024,-30.22399 -6.50151,-7.98128 -15.44922,-25.69049 -21.13481,-41.82977 l -3.64026,-10.33333 -81.49377,0.003 -81.49378,0.003 -3.86017,10.92904 c -2.1231,6.01097 -6.86634,16.95941 -10.54054,24.32987 -5.52943,11.09205 -8.53981,15.24561 -17.47316,24.10849 -5.93604,5.88921 -17.92419,15.63921 -26.64034,21.66666 l -15.84755,10.95901 h 152.7385 c 84.00617,0 153.69936,-0.36872 154.87374,-0.81937 z M 518.66667,834.66665 v -8 H 436 353.33333 v 7.23557 c 0,5.76983 0.47267,7.35909 2.33334,7.84533 1.28333,0.33537 38.48333,0.67936 82.66666,0.76443 l 80.33334,0.15467 z m 16.70388,-23.86764 c 84.04159,-22.56984 162.64268,-50.86657 203.29612,-73.18747 25.2809,-13.88057 45.27095,-30.45004 62.14392,-51.5102 12.84454,-16.03205 17.72663,-28.02298 13.88432,-34.10135 -1.11895,-1.77013 -44.82588,-2 -380.26177,-2 H 55.435635 l -1.973833,3.51658 c -1.627626,2.89979 -1.694329,4.44949 -0.380294,8.83535 4.758802,15.88346 33.034629,47.43386 56.251822,62.76624 25.65389,16.94154 74.46138,38.70411 126.13028,56.23971 52.23512,17.72776 111.91429,34.49966 127.86972,35.9358 5.86667,0.52806 40.38342,1.053 76.70389,1.16654 l 66.03722,0.20644 z M 828,633.99999 v -7.33334 l -106.33333,-3.4e-4 c -58.48334,-1.9e-4 -234.58334,-0.39972 -391.33334,-0.88785 L 45.333333,624.89095 v 7.48798 7.48798 L 53,640.348 c 4.216667,0.2646 180.31667,0.59455 391.33333,0.73321 L 828,641.33332 Z M 74.273296,616.50864 c 2.334018,-0.6258 4.992266,-5.6373 12.897456,-24.31513 17.488108,-41.31966 52.888448,-127.01071 58.892678,-142.55724 9.21617,-23.86311 31.01646,-74.515 37.71816,-87.63628 8.21953,-16.09301 25.26917,-33.78575 35.91266,-37.26724 15.88433,-5.19577 53.54957,-4.93274 68.95414,0.48153 13.33916,4.68834 27.02756,17.34099 40.96603,37.8663 13.98285,20.59065 14.55847,24.40185 27.72504,183.56843 2.94134,35.55696 5.68367,65.70696 6.09407,67 1.28918,4.06186 4.39367,2.628 5.35027,-2.47112 0.95456,-5.08828 -0.0357,-40.98004 -2.14769,-77.84457 -0.69322,-12.1 -2.18118,-43.9 -3.30656,-70.66666 -4.27294,-101.62972 -6.6148,-117.75209 -20.04256,-137.98187 -20.09984,-30.28169 -82.91755,-52.0524 -121.80793,-42.21492 -34.40565,8.70305 -49.39736,31.17312 -92.0586,137.98051 -10.92432,27.35033 -66.929812,173.66036 -69.749905,182.21627 -4.410112,13.37989 -4.459458,13.12559 2.655783,13.68633 3.487181,0.27482 6.940329,0.59963 7.673662,0.7218 0.733333,0.12217 2.656317,-0.13259 4.273296,-0.56614 z M 290.84041,615.907 c 1.86483,-0.99803 2.26889,-1.90372 1.34562,-3.01619 -0.72571,-0.87443 -2.64287,-5.12697 -4.26036,-9.4501 -4.11327,-10.99368 -9.57162,-16.48962 -17.87637,-17.99948 -5.72819,-1.04143 -7.34064,-0.80301 -12,1.77438 -3.48447,1.92748 -6.47966,5.05929 -8.49348,8.88092 -1.71096,3.2469 -3.96096,6.8507 -5,8.00845 -1.03903,1.15774 -1.88915,2.61049 -1.88915,3.22834 0,0.61785 -0.97277,2.19826 -2.16171,3.51202 -1.18894,1.31376 -1.80777,3.31101 -1.37518,4.43832 0.66751,1.73951 4.43774,2.04966 24.91603,2.04966 14.58525,0 25.18366,-0.56417 26.7946,-1.42632 z m 125.41171,-26.57368 c -0.228,-15.03333 -1.27445,-45.63333 -2.32546,-68 -1.05101,-22.36666 -3.11689,-67.06666 -4.59084,-99.33333 C 399.62159,209.34366 396.8872,169.45006 389.3548,130.48469 382.66858,95.896712 365.35073,76.311791 344.0138,79.208125 327.20444,81.489872 316.92327,88.810266 304.81547,107.11808 288.74273,131.42116 281.9381,147.93758 259.133,218 c -18.35493,56.39049 -17.95048,52.87481 -6.284,54.62431 3.33414,0.49998 6.2851,0.68603 6.55769,0.41344 0.27259,-0.27259 8.51895,-24.77428 18.32524,-54.4482 21.0094,-63.57461 25.63467,-73.95388 39.01735,-87.55634 5.21279,-5.2984 12.12671,-10.83522 15.36426,-12.30405 11.92573,-5.41052 26.35386,-2.25474 34.4176,7.52797 6.18636,7.50513 10.23149,25.44774 14.73161,65.3437 5.20081,46.10784 7.29217,86.90037 16.69975,325.73249 1.83426,46.56667 3.68186,87.78155 4.10578,91.58862 0.73223,6.5759 0.98309,6.94964 5.01791,7.47585 10.35669,1.35068 9.62945,3.49801 9.16593,-27.06447 z m 55.40852,26.90462 c 1.21589,-0.77212 2.5559,-19.4245 5.00349,-69.64625 5.02505,-103.10851 13.83987,-270.02742 15.41627,-291.92503 2.05488,-28.54391 7.49913,-75.97195 11.29062,-98.35912 3.76068,-22.20521 6.62333,-28.42583 16.27281,-35.36127 4.13153,-2.96948 7.57716,-4.21675 12.85889,-4.65475 6.26909,-0.51988 8.32339,-0.0101 15.66868,3.88841 11.06613,5.8733 24.18068,18.77084 28.4451,27.9744 1.82949,3.94845 12.10688,33.46372 22.83864,65.58949 l 19.51228,58.41048 7.51629,-0.91031 c 9.5165,-1.15256 9.84574,-1.37537 8.83469,-5.97865 -1.98493,-9.03732 -36.99175,-112.56426 -42.48595,-125.64525 -12.00404,-28.58005 -27.37403,-49.434401 -41.54318,-56.36672 -10.79703,-5.282493 -22.22445,-5.880103 -31.47311,-1.645923 -16.14519,7.391513 -23.69935,21.347073 -30.32277,56.018343 -6.24525,32.69169 -9.41553,69.42622 -14.81878,171.70754 -2.22755,42.16666 -4.93437,88.96666 -6.01516,103.99999 -4.46555,62.11406 -10.9206,198.32565 -9.56593,201.85586 0.88079,2.29529 9.47477,3.01248 12.56712,1.04876 z m 161.70265,-1.57129 c 1.86165,-2.94905 1.58366,-5.04237 -1.02996,-7.75558 -1.28333,-1.33224 -3.83333,-5.27003 -5.66666,-8.75066 -3.46343,-6.57539 -9.19637,-11.84466 -14.29513,-13.13895 -5.41324,-1.37412 -15.8523,2.71273 -19.65122,7.69337 -6.23504,8.17456 -9.58329,22.1011 -5.72032,23.79283 0.91667,0.40144 11.43933,0.60144 23.3837,0.44444 17.6332,-0.23177 21.95446,-0.66154 22.97959,-2.28545 z m 115.24163,1.43325 c 0.41926,-0.67838 0.16862,-2.62838 -0.55697,-4.33333 -0.7256,-1.70495 -11.2893,-29.19992 -23.47489,-61.09991 -48.92367,-128.07462 -66.98567,-170.32372 -77.16888,-180.50693 -2.59948,-2.59948 -7.11872,-5.36481 -10.06317,-6.15767 -6.46374,-1.74051 -28.6808,-1.22529 -28.65888,0.6646 0.009,0.73333 3.6085,2.60028 8,4.14876 4.61763,1.62823 10.59374,5.13348 14.1722,8.31265 12.46184,11.0713 18.76201,26.76234 74.49624,185.53859 20.52002,58.45762 18.4005,53.05546 21.09629,53.76942 4.30678,1.14062 21.40568,0.8812 22.15806,-0.33618 z m 37.33244,10e-4 c 1.73284,-2.80378 -87.14406,-224.0496 -101.27668,-252.11323 -5.28496,-10.49452 -18.38172,-25.20681 -26.86402,-30.17776 -20.66613,-12.11116 -60.52124,-8.27144 -80.79254,7.78373 -10.64249,8.42901 -27.86048,35.19216 -33.53523,52.12621 -2.38605,7.12023 -5.66275,37.2101 -10.77497,98.94638 -1.88248,22.73333 -4.28457,50.03333 -5.33798,60.66666 -2.82798,28.54646 -4.09204,62.66667 -2.32161,62.66667 2.47878,0 4.05905,-11.7412 12.29271,-91.33333 8.6895,-83.99864 10.76648,-100.15406 14.82152,-115.28652 6.98864,-26.07994 25.34058,-45.21781 50.42677,-52.58631 9.85352,-2.89424 29.6625,-2.80844 38.93822,0.16867 17.08441,5.48336 27.83142,24.47727 56.57824,99.99446 16.22405,42.62017 58.57391,149.8844 61.12427,154.81624 1.97266,3.81471 2.69901,4.13251 10.45196,4.57296 4.58259,0.26034 9.94657,0.58896 11.91996,0.73025 1.97338,0.1413 3.93061,-0.29748 4.34938,-0.97508 z M 117.5577,607.99999 c 1.99288,-4.03334 20.99867,-50.53333 42.2351,-103.33333 51.16331,-127.20704 51.63643,-128.24452 63.43373,-139.10168 8.55573,-7.87391 13.90251,-9.83771 28.77347,-10.56811 22.61941,-1.11097 36.47392,3.41046 50.64108,16.52675 10.28426,9.52141 17.03649,19.90249 20.93941,32.19287 4.27826,13.47231 8.65754,50.51636 17.05696,144.2835 5.54128,61.86026 5.96669,65.80414 7.23477,67.07222 0.67582,0.67582 1.97059,0.77028 2.87728,0.20992 2.35031,-1.45257 1.07149,-26.58636 -5.39069,-105.94881 -8.7925,-107.98124 -10.14662,-118.28247 -17.31049,-131.68656 -9.46531,-17.71027 -29.36056,-39.30968 -41.29291,-44.82993 -5.55528,-2.57004 -8.42515,-2.81684 -32.75541,-2.81684 -25.80795,0 -26.8777,0.10734 -33.22019,3.33334 -14.4205,7.33473 -23.36748,19.01326 -36.50445,47.64943 -13.66752,29.79266 -91.954009,221.83287 -94.332864,231.40268 l -0.924413,3.71879 12.458097,-0.38546 12.4581,-0.38545 z m 31.31902,6.97708 c 2.01416,-1.28164 12.11038,-26.72258 25.78611,-64.97708 6.02972,-16.86667 18.11763,-49.78209 26.86202,-73.1454 8.74439,-23.3633 18.27789,-49.37806 21.18554,-57.81059 9.6057,-27.85757 17.85235,-39.12013 35.88042,-49.00242 5.17505,-2.83677 9.40919,-5.61345 9.40919,-6.1704 0,-0.55695 -3.30556,-1.42564 -7.34569,-1.93042 -12.71621,-1.58879 -26.44913,3.40704 -33.9593,12.35387 -5.7283,6.8241 -16.02731,28.39141 -30.7395,64.37203 -16.75171,40.96854 -68.71555,170.62654 -69.86865,174.33333 -0.91658,2.94648 -0.73541,2.99963 10.15662,2.97958 6.09942,-0.0112 11.78438,-0.46235 12.63324,-1.0025 z m 36.60528,-4.31042 c 1.18876,-2.56666 13.99011,-39.46666 28.44746,-81.99999 26.30211,-77.38047 32.33877,-92.38142 41.46791,-103.04677 8.41494,-9.83096 21.06655,-13.31814 34.12471,-9.40582 15.1512,4.53941 25.97261,24.39785 30.39927,55.78592 0.77566,5.5 3.21094,33.7 5.41174,62.66667 3.94929,51.98031 6.07206,74.44093 7.46635,78.99999 1.3897,4.54409 3.20056,2.2457 3.20056,-4.06224 0,-14.72727 -10.29616,-130.93543 -14.76996,-166.7019 -4.63487,-37.05425 -8.76177,-48.60006 -22.06556,-61.73276 l -7.26318,-7.16976 h -12.32244 c -16.93291,0 -23.13623,3.12635 -31.83397,16.04366 -9.35803,13.89794 -16.59255,31.16889 -40.43822,96.53814 -11.92116,32.68001 -27.14199,74.26999 -33.82408,92.42218 -6.68209,18.15219 -12.14926,33.92646 -12.14926,35.05393 0,1.70992 1.82346,1.9857 10.99365,1.66268 l 10.99364,-0.38726 z m 19.47235,3.66667 c 0.70447,-0.91667 3.90704,-7.96667 7.11682,-15.66667 3.20978,-7.7 8.29048,-17.6 11.29044,-22 16.16767,-23.71284 49.06664,-28.94648 71.2945,-11.34169 7.47534,5.92058 14.65665,17.60848 19.52949,31.78513 2.35824,6.86087 4.69832,12.86782 5.20018,13.34877 0.50186,0.48095 0.47149,-4.22554 -0.0675,-10.45887 -2.68318,-31.03157 -14.36586,-51.46114 -33.52802,-58.63062 -22.44373,-8.39728 -45.58851,-2.90146 -62.62699,14.87104 -9.1815,9.57703 -13.71542,17.79837 -21.55905,39.09291 -8.07585,21.925 -7.92217,20.66667 -2.52402,20.66667 2.52629,0 5.16965,-0.75 5.87413,-1.66667 z m 22.26429,-0.40911 c 1.14167,-1.14168 4.24539,-5.79168 6.89714,-10.33333 13.1699,-22.5561 26.78977,-30.70108 44.06419,-26.35133 12.06668,3.03842 15.18098,6.7537 22.43171,26.76044 4.28093,11.81225 6.88008,14.05469 6.49855,5.60668 -0.5383,-11.91959 -12.02881,-32.79601 -22.14648,-40.23662 -20.44184,-15.03311 -50.32368,-2.97168 -61.63557,24.87841 -4.91375,12.09775 -7.30295,19.99898 -6.33886,20.96307 1.57287,1.57287 8.20358,0.73842 10.22932,-1.28732 z m 161.84352,-1.92422 c 2.06481,-3.84586 1.57327,-40.52641 -1.7778,-132.66667 -6.73387,-185.153 -10.42757,-248.46799 -18.06905,-309.72817 -3.56496,-28.57947 -7.46469,-39.2524 -15.94449,-43.63748 -8.89892,-4.60181 -17.99538,-1.37429 -29.98131,10.63769 -11.09611,11.12023 -15.90648,21.16146 -29.10601,60.75633 -14.14922,42.4437 -19.97687,62.93114 -20.09305,70.6383 -0.0902,5.98549 -0.0792,6 4.57622,6 4.20324,0 4.96075,-0.59582 7.6281,-6 1.62879,-3.3 8.30073,-21.30421 14.82655,-40.00937 14.65618,-42.00952 19.40029,-53.50632 24.19885,-58.6432 3.3486,-3.58469 4.58395,-4.01199 11.54811,-3.99443 9.24739,0.0233 13.36884,1.84463 17.26834,7.6311 3.35492,4.97836 4.00811,8.90236 5.82875,35.01591 2.7803,39.87816 18.7013,381.65711 18.7013,401.4643 v 6.70464 l 4.30292,-0.41781 c 2.96788,-0.28818 4.8582,-1.45203 6.09257,-3.75114 z M 432.5,611.83332 c 1.30469,-6.52343 0.94705,-177.13429 -0.5293,-252.49999 C 429.92245,254.7725 422.99565,176.16738 410.56055,116.37155 401.2726,71.709193 393.81726,58.06527 373.77267,49.046567 c -9.81957,-4.418141 -28.97495,-4.923376 -40.43934,-1.066613 -18.86348,6.345915 -43.09627,27.055309 -54.89244,46.9112 -2.99493,5.041204 -9.02402,18.003006 -13.39798,28.803996 -7.66622,18.93083 -47.87987,137.60203 -49.74932,146.81115 l -0.91479,4.50631 6.47727,-0.97123 c 3.56249,-0.53419 7.43425,-1.48335 8.60389,-2.10927 1.30943,-0.70071 7.65514,-17.68612 16.51367,-44.20173 19.25802,-57.64364 27.49804,-79.94723 36.64506,-99.18859 9.60111,-20.19657 15.89182,-29.453572 27.79933,-40.90766 12.53349,-12.056228 18.55992,-14.618119 34.84797,-14.814182 23.1315,-0.27844 32.17823,4.878394 41.39807,23.597808 15.53972,31.550924 19.699,71.791444 28.00198,270.915574 7.01966,168.34724 11.29789,242.9602 14.20036,247.6565 1.32666,2.14657 2.83505,0.83623 3.6336,-3.15651 z m 14.16353,0.84159 c 2.07919,-5.46868 7.61511,-90.05838 14.00563,-214.00825 9.46024,-183.48952 9.86637,-189.03154 18.1157,-247.20311 5.45056,-38.43561 11.07852,-54.324309 23.88181,-67.422422 9.12728,-9.337465 16.09308,-12.041129 31.02308,-12.041129 11.30604,0 13.19564,0.388891 21.6812,4.462141 16.61375,7.974952 21.80081,14.227915 38.58204,46.51036 12.85953,24.73818 17.43195,36.74585 36.0888,94.77299 8.53311,26.53998 16.35885,49.57474 17.39054,51.18835 1.77845,2.78161 9.08789,5.70921 14.29475,5.72539 2.03266,0.006 2.26245,-0.74681 1.52334,-4.99257 C 662.13331,263.24958 628.42665,161.62522 616.70481,129.33333 606.56415,101.39736 600.99508,89.941252 592.94781,80.462899 581.33719,66.787514 563.58899,53.845552 548.11492,47.770835 542.48139,45.559253 537.74294,44.83 528.66667,44.777721 c -10.40408,-0.05993 -13.05647,0.422795 -19.94375,3.629665 -4.36906,2.03433 -9.98379,5.254803 -12.47718,7.156605 -14.31751,10.920498 -25.94267,45.153959 -34.27241,100.924469 -5.54415,37.12003 -15.36253,132.29403 -16.66192,161.51153 -1.48566,33.40586 -3.44625,292.65479 -2.23706,295.8059 1.1686,3.04533 2.11469,2.74721 3.58918,-1.13098 z m 46.44739,0.99174 c 3.0902,-5.98506 4.11287,-20.19945 11.58329,-160.99999 3.30721,-62.33333 7.49924,-139.43333 9.31562,-171.33333 5.56811,-97.78909 6.11791,-101.77479 15.30637,-110.96326 4.37584,-4.37584 5.84652,-5.03674 11.20814,-5.03674 6.76783,0 17.52382,4.35295 19.39491,7.84912 1.37015,2.56015 31.32126,92.43545 32.59112,97.79724 1.03439,4.3676 6.0656,6.09717 11.08438,3.81046 3.06889,-1.39827 3.31522,-2.0667 2.54247,-6.89918 -1.09685,-6.85936 -15.94776,-56.20363 -26.23625,-87.17371 -8.63705,-25.99899 -14.19886,-36.35064 -24.76232,-46.08769 -17.66476,-16.28281 -32.8438,-13.45689 -39.58924,7.37043 -4.70751,14.53496 -12.58066,84.696 -16.83232,149.99999 -3.13044,48.08256 -16.05042,305.52978 -16.05042,319.82537 0,3.87404 0.33264,4.17463 4.61975,4.17463 3.05193,0 5.02862,-0.79188 5.8245,-2.33334 z m 17.40111,-0.0444 c 1.65439,-3.09125 4.22427,-26.38209 10.84509,-98.28893 10.50649,-114.1081 12.23881,-125.69561 21.4597,-143.54347 4.56393,-8.83391 8.63863,-14.05417 19.79825,-25.36431 11.75032,-11.90881 15.73176,-15.03898 24.31069,-19.11278 8.72451,-4.14294 12.41423,-5.06721 24.66667,-6.17899 33.52634,-3.04217 50.99279,2.23828 68.7325,20.77917 10.84319,11.33291 16.27988,23.49908 71.24001,159.42038 41.83324,103.45731 45.35327,111.68401 48.51021,113.37355 4.12546,2.20788 15.88573,1.61316 16.83138,-0.85116 1.1174,-2.91189 -1.0043,-9.31533 -22.48311,-67.85572 C 716.81695,334.4839 701.33384,302.27907 670.07895,287.36384 c -13.17998,-6.28965 -22.83296,-7.85619 -43.09397,-6.99352 -29.25268,1.24552 -55.94753,11.69765 -79.58055,31.15904 -19.92711,16.40964 -26.21773,34.25606 -30.00977,85.1373 -4.98844,66.93454 -12.29598,209.50474 -11.06765,215.93029 0.76048,3.9782 2.39091,4.37764 4.18502,1.0253 z m 33.70107,-3.87471 c 0.50478,-2.95693 3.08443,-31.10978 5.73254,-62.56189 7.94159,-94.32358 11.13368,-110.08502 24.7946,-122.42684 16.10847,-14.55304 36.9912,-13.90847 48.73144,1.50415 6.34208,8.3259 15.62053,33.22128 40.82086,109.52808 12.49475,37.83419 23.81909,71.35883 25.16521,74.49919 l 2.44748,5.70976 h 10.8586 10.85859 l -0.88868,-3.54078 c -0.48877,-1.94742 -6.91145,-20.69742 -14.27261,-41.66666 -7.36117,-20.96924 -20.73796,-59.13069 -29.72621,-84.80322 -24.6677,-70.45667 -35.43794,-95.73235 -43.81009,-102.81385 -9.41866,-7.96667 -24.46163,-12.5597 -34.78951,-10.62218 -6.97801,1.30908 -18.13454,12.147 -23.29532,22.63001 -7.70418,15.64941 -10.67691,34.71736 -20.08277,128.81668 -6.95119,69.54186 -8.4723,87.74869 -7.53514,90.1909 1.35411,3.52876 4.03796,1.13941 4.99101,-4.44335 z m 114.45357,4.28289 c 0,-7.28088 -14.36264,-36.31658 -20.72926,-41.90654 -9.97792,-8.76073 -29.92443,-12.13035 -41.27678,-6.97301 -12.28397,5.58057 -25.96715,26.14956 -27.07624,40.70182 -0.76772,10.07326 1.22456,9.07307 5.0951,-2.55792 3.84576,-11.5565 10.07036,-20.46818 16.65384,-23.8431 6.24423,-3.20101 17.26674,-3.57669 25.25908,-0.8609 7.3649,2.50257 17.36388,12.34314 23.02865,22.6638 6.63182,12.08254 9.27048,14.74541 14.61136,14.74541 3.02221,0 4.43425,-0.62719 4.43425,-1.96956 z m 19.12883,0.0217 c 0.83785,-2.18339 -3.58682,-17.92996 -8.99666,-32.01748 -8.83589,-23.00911 -25.23944,-38.36311 -47.05657,-44.04575 -12.35023,-3.21683 -21.37763,-2.62454 -30.65466,2.01125 -20.0349,10.01155 -31.86711,29.54379 -35.2444,58.18035 -1.90361,16.14097 -0.92893,18.19164 2.76602,5.81951 6.49986,-21.76406 19.12387,-39.39275 33.13732,-46.27435 6.60737,-3.24469 9.04986,-3.70792 18.92012,-3.58829 13.90633,0.16854 23.72017,3.59951 32.56472,11.38479 8.71986,7.67552 13.40236,15.05938 19.52184,30.78403 7.97619,20.49569 7.52523,19.69382 11.07553,19.69382 1.7706,0 3.55563,-0.87655 3.96674,-1.94788 z M 312.12847,541.09327 c 1.09577,-2.04747 1.34572,-9.63472 0.84555,-25.66666 -1.28964,-41.3364 -11.57664,-81.68372 -22.28773,-87.41611 -4.40937,-2.35983 -18.19124,-3.20575 -22.58403,-1.3862 -8.17659,3.38685 -15.72884,18.90138 -28.25422,58.04236 -4.45876,13.93333 -10.1486,30.29036 -12.6441,36.34894 -2.4955,6.05859 -4.53727,11.60859 -4.53727,12.33333 0,2.25518 8.5569,1.44982 16.79126,-1.58035 6.52086,-2.39962 10.85668,-2.91223 25.20874,-2.98037 20.2552,-0.0962 26.96828,1.67089 37.33333,9.827 3.66667,2.88525 7.09556,5.27716 7.61975,5.31535 0.5242,0.0382 1.65313,-1.23859 2.50872,-2.83729 z m 260.30077,-2.96291 c 3.06392,-1.76163 10.05775,-4.79815 15.54185,-6.74782 15.32114,-5.44686 28.78049,-4.90427 52.52421,2.1174 10.9449,3.2367 12.63323,2.34192 9.41767,-4.99116 -2.72206,-6.20766 -10.69173,-31.34406 -13.47771,-42.50879 -3.83828,-15.38182 -13.1326,-41.24925 -16.74433,-46.6019 -2.00332,-2.96895 -3.65332,-6.39476 -3.66667,-7.61291 -0.0133,-1.21814 -1.8703,-3.76814 -4.12656,-5.66666 -3.44657,-2.9001 -5.42171,-3.45186 -12.35663,-3.45186 -7.9485,0 -8.48299,0.2191 -14.42559,5.91348 -5.24468,5.02561 -6.78319,7.77828 -10.24683,18.33334 -6.61508,20.15879 -7.98858,27.14003 -10.83254,55.0598 -3.26825,32.08517 -3.29174,33.83261 -0.49613,36.92172 2.73643,3.02371 2.22364,3.06782 8.88926,-0.76464 z M 532.08581,307.75238 c 3.34719,-2.79715 6.52429,-5.08572 7.06021,-5.08572 0.53593,0 5.29731,-2.91397 10.58086,-6.47548 5.28355,-3.56151 12.30645,-7.83004 15.60645,-9.48563 3.3,-1.65558 7.95,-4.47215 10.33334,-6.25904 5.4565,-4.09098 5.66973,-8.83516 0.95952,-21.34902 -1.85559,-4.92985 -3.05263,-9.80033 -2.66009,-10.82329 0.39255,-1.02295 -0.55771,-4.65312 -2.11167,-8.06706 -1.55396,-3.41393 -4.8171,-12.20714 -7.25141,-19.54048 -14.09541,-42.4621 -15.82084,-46 -22.43427,-46 -6.96316,0 -11.5479,10.03001 -13.40832,29.33334 -1.96527,20.39113 -6.08932,87.0183 -6.09145,98.41202 -0.003,13.84537 -0.45419,13.58926 9.41683,5.34036 z M 354.08217,264.49561 c -3.32851,-69.44308 -5.4873,-84.51495 -12.60827,-88.02612 -7.24536,-3.57251 -11.42683,1.17778 -18.99931,21.58382 -14.95369,40.29668 -22.69568,65.26373 -22.91868,73.91021 l -0.22258,8.63019 14.13517,7.36981 c 7.77433,4.05339 16.45591,9.31558 19.29239,11.69375 2.83648,2.37816 7.60938,5.47658 10.60645,6.88537 2.99706,1.40879 6.26394,3.54313 7.25973,4.74298 1.56907,1.8906 2.06453,1.92753 3.71516,0.2769 1.65063,-1.65062 1.61595,-7.92764 -0.26006,-47.06691 z"
       id="path1" />
  </g>
</svg>
