<svg xmlns="http://www.w3.org/2000/svg" xmlns:xlink="http://www.w3.org/1999/xlink" width="63" height="40" viewBox="0 0 63 40">
  <defs>
    <clipPath id="clip-path">
      <rect id="Rectangle_19371" data-name="Rectangle 19371" width="63" height="40" transform="translate(473 2537)" fill="#fff" stroke="#707070" stroke-width="1"/>
    </clipPath>
  </defs>
  <g id="Mask_Group_185" data-name="Mask Group 185" transform="translate(-473 -2537)" clip-path="url(#clip-path)">
    <path id="Union" d="M48.427,25.029c-4.7,0-8.577,3.393-11.341,7.141A20.314,20.314,0,0,1,20.7,40.41c-.324,0-80.647-.008-81.26-.038a20.047,20.047,0,0,1-19-19.962A20.182,20.182,0,0,1-60.272.433C-60.15.423,20.272.41,20.7.41A20.459,20.459,0,0,1,36.923,8.432c-.067-.089.05.064.164.219,2.764,3.749,6.645,7.142,11.342,7.142h9.367c4.7,0,8.577-3.393,11.342-7.142A20.314,20.314,0,0,1,85.526.41c.236,0,50.471,0,51,.024a20.152,20.152,0,0,1,15.385,8.217c2.764,3.749,6.645,7.142,11.342,7.142h9.367c4.7,0,8.577-3.393,11.342-7.142A20.314,20.314,0,0,1,200.353.41c.162,0,50.323,0,50.782.015a20.158,20.158,0,0,1,15.607,8.226c2.764,3.749,6.645,7.142,11.342,7.142h9.367c4.7,0,8.577-3.393,11.342-7.142A20.314,20.314,0,0,1,315.18.41c.369,0,50.736.01,51.389.046a20.045,20.045,0,0,1,18.87,19.954,20.182,20.182,0,0,1-19.225,19.974c-.142.011-50.586.026-51.034.026a20.316,20.316,0,0,1-16.388-8.24c-2.764-3.748-6.644-7.141-11.341-7.141h-9.369c-4.7,0-8.576,3.393-11.342,7.141a20.458,20.458,0,0,1-15.31,8.212c-.152.012-50.613.028-51.078.028a20.316,20.316,0,0,1-16.388-8.24c-2.764-3.748-6.644-7.141-11.341-7.141h-9.369c-4.7,0-8.576,3.393-11.342,7.141A20.461,20.461,0,0,1,136.4,40.392c-.08.007-50.475.018-50.873.018a20.314,20.314,0,0,1-16.388-8.24c-2.764-3.748-6.645-7.141-11.341-7.141Z" transform="translate(451.561 2536.59)" fill="#204c65" fill-rule="evenodd" opacity="0.1"/>
  </g>
</svg>
