<svg xmlns="http://www.w3.org/2000/svg" width="16" height="9" viewBox="0 0 16 9">
  <path id="Eye" d="M12,7.5a8.281,8.281,0,0,0-7.98,5.969.489.489,0,0,0,.054.374.5.5,0,0,0,.306.227.505.505,0,0,0,.379-.053.5.5,0,0,0,.23-.3,7.322,7.322,0,0,1,14.031,0,.5.5,0,0,0,.23.3.506.506,0,0,0,.379.053.5.5,0,0,0,.306-.227.489.489,0,0,0,.054-.374A8.291,8.291,0,0,0,12,7.5ZM12,10.134a3.183,3.183,0,1,0,3.222,3.182A3.209,3.209,0,0,0,12,10.134Zm0,.988a2.2,2.2,0,1,1-2.221,2.194A2.2,2.2,0,0,1,12,11.122Z" transform="translate(-4 -7.5)" fill="#204c65"/>
</svg>
