<svg xmlns="http://www.w3.org/2000/svg" width="16" height="13" viewBox="0 0 16 13">
  <path id="Eye" d="M18,5.646C13.88,9.607,9.407,13.7,5.294,17.671c-.479.443.256,1.133.707.681l3.5-3.2A3.375,3.375,0,0,0,12,16.245a3.221,3.221,0,0,0,2.2-5.614L15.683,9.2a6.88,6.88,0,0,1,3.332,4.109c.158.608,1.133.376.966-.237A7.741,7.741,0,0,0,16.424,8.49L18.7,6.327C19.174,5.886,18.452,5.2,18,5.646ZM4.019,13.077c-.165.605.812.838.966.237.963-3.6,5.108-5.763,8.688-4.9l.82-.789C10.244,6.327,5.189,8.69,4.019,13.077Zm4.649-.042c0,.063.006.126.01.188l1.241-1.2a2.3,2.3,0,0,1,1.037-1l1.24-1.2A3.31,3.31,0,0,0,8.667,13.035Zm4.823-1.718a2.2,2.2,0,0,1,.842,1.718A2.294,2.294,0,0,1,12,15.282a2.353,2.353,0,0,1-1.783-.811l.946-.912a.986.986,0,0,0,.361.322,1.024,1.024,0,0,0,1.073-.075.964.964,0,0,0,.359-.5.93.93,0,0,0-.02-.606.97.97,0,0,0-.392-.474Z" transform="translate(-4 -5.5)" fill="#32ae59"/>
</svg>
