<svg id="filter" xmlns="http://www.w3.org/2000/svg" width="18" height="18" viewBox="0 0 18 18">
  <path id="Vector" d="M1.5,0h9.9a1.5,1.5,0,0,1,1.5,1.5V3.15a2.8,2.8,0,0,1-.75,1.725L8.925,7.725a2.441,2.441,0,0,0-.75,1.725v3.225A1.67,1.67,0,0,1,7.5,13.95l-1.05.675A1.529,1.529,0,0,1,4.125,13.35V9.375a2.9,2.9,0,0,0-.6-1.575l-2.85-3A2.486,2.486,0,0,1,0,3.3V1.575A1.522,1.522,0,0,1,1.5,0Z" transform="translate(2.55 1.575)" fill="none" stroke="#204c65" stroke-linecap="round" stroke-linejoin="round" stroke-width="1.5"/>
  <path id="Vector-2" data-name="Vector" d="M3.7,0,0,5.925" transform="translate(4.5 1.575)" fill="none" stroke="#204c65" stroke-linecap="round" stroke-linejoin="round" stroke-width="1.5"/>
  <path id="Vector-3" data-name="Vector" d="M0,0H18V18H0Z" fill="none" opacity="0"/>
</svg>
