<svg xmlns="http://www.w3.org/2000/svg" xmlns:xlink="http://www.w3.org/1999/xlink" width="70" height="41" viewBox="0 0 70 41">
  <defs>
    <clipPath id="clip-path">
      <rect id="Rectangle_19372" data-name="Rectangle 19372" width="70" height="41" transform="translate(564 3064)" fill="#fff"/>
    </clipPath>
  </defs>
  <g id="Mask_Group_186" data-name="Mask Group 186" transform="translate(-564 -3064)" clip-path="url(#clip-path)">
    <path id="Union" d="M48.427,25.348c-4.7,0-8.577,3.436-11.341,7.233a20.259,20.259,0,1,1,0-23.823c2.764,3.8,6.645,7.234,11.342,7.234h9.367c4.7,0,8.577-3.437,11.342-7.234a20.262,20.262,0,0,1,32.778,0c2.764,3.8,6.645,7.234,11.342,7.234h9.367c4.7,0,8.577-3.437,11.342-7.234a20.262,20.262,0,0,1,32.777,0c2.764,3.8,6.645,7.234,11.342,7.234h9.367c4.7,0,8.577-3.437,11.342-7.234a20.258,20.258,0,1,1,0,23.823c-2.764-3.8-6.644-7.233-11.341-7.233h-9.369c-4.7,0-8.576,3.436-11.342,7.233a20.262,20.262,0,0,1-32.776,0c-2.764-3.8-6.644-7.233-11.341-7.233h-9.369c-4.7,0-8.576,3.436-11.342,7.233a20.262,20.262,0,0,1-32.776,0c-2.764-3.8-6.645-7.233-11.341-7.233Z" transform="translate(546.561 3063.59)" fill="#204c65" fill-rule="evenodd" opacity="0.1"/>
  </g>
</svg>
