<svg version="1.2" xmlns="http://www.w3.org/2000/svg" viewBox="0 0 38 40" width="38" height="40">
	<title>logo-svg</title>
	<style>
		.s0 { fill: #004053 } 
		.s1 { fill: #2d9a4a } 
		.s2 { fill: #61ba98 } 
		.s3 { fill: #32ae59 } 
		.s4 { fill: #204c65 } 
	</style>
	<path id="Layer" class="s0" d="m32.7 31.8l2.3 2.2c-2.8 2.8-6.4 4.8-10.3 5.6-3.9 0.8-7.9 0.4-11.6-1.1-3.6-1.5-6.8-4.1-9-7.4-2.2-3.2-3.4-7.1-3.4-11.1 0-4 1.2-7.9 3.4-11.2 2.2-3.2 5.4-5.8 9-7.3 3.7-1.5 7.7-1.9 11.6-1.1 3.9 0.8 7.5 2.8 10.3 5.6l-2.3 2.2-2.1 2.1c-1.9-2-4.4-3.3-7.1-3.9-2.7-0.5-5.5-0.3-8 0.8-2.6 1-4.8 2.8-6.3 5.1-1.5 2.3-2.3 5-2.3 7.7 0 2.8 0.8 5.4 2.3 7.7 1.5 2.3 3.7 4.1 6.3 5.1 2.5 1.1 5.3 1.3 8 0.8 2.7-0.6 5.2-1.9 7.1-3.9z"/>
	<path id="Layer" class="s1" d="m37.5 20c0 4.4-1.7 8.6-4.8 11.8l-2.1-2.1-2.3-2.3c2-1.9 3-4.6 3-7.4 0-2.8-1-5.5-3-7.4l2.3-2.3 2.1-2.1c3.1 3.2 4.8 7.4 4.8 11.8z"/>
	<path id="Layer" class="s2" d="m27.1 20.1c0 1.2-0.4 2.4-1.1 3.5-0.7 1-1.7 1.8-2.8 2.3-1.2 0.5-2.5 0.6-3.7 0.4-1.2-0.3-2.4-0.9-3.2-1.8-0.9-0.9-1.5-2-1.8-3.2-0.2-1.2-0.1-2.5 0.4-3.7 0.5-1.1 1.3-2.1 2.3-2.8 1.1-0.7 2.3-1.1 3.5-1.1 1.7 0 3.3 0.7 4.5 1.9 1.2 1.2 1.9 2.8 1.9 4.5z"/>
	<path id="Layer" class="s0" d="m80.1 25.2l1 1c-1.3 1.3-2.8 2.1-4.6 2.5-1.7 0.4-3.5 0.2-5.1-0.5-1.7-0.6-3.1-1.8-4.1-3.3-0.9-1.4-1.5-3.1-1.5-4.9 0-1.8 0.6-3.5 1.5-5 1-1.4 2.4-2.6 4.1-3.3 1.6-0.6 3.4-0.8 5.1-0.4 1.8 0.3 3.3 1.2 4.6 2.4l-1 1-1 1c-0.8-0.9-1.9-1.5-3.1-1.7-1.2-0.3-2.5-0.2-3.6 0.3-1.1 0.4-2.1 1.2-2.8 2.2-0.7 1.1-1 2.3-1 3.5 0 1.2 0.3 2.4 1 3.4 0.7 1 1.7 1.8 2.8 2.3 1.1 0.4 2.4 0.6 3.6 0.3 1.2-0.2 2.3-0.8 3.1-1.7z"/>
	<path id="Layer" class="s1" d="m82.2 20c0 1.9-0.8 3.8-2.1 5.2l-1-0.9-1-1c0.9-0.9 1.4-2.1 1.4-3.3 0-1.3-0.5-2.4-1.4-3.3l1-1 1-0.9c1.3 1.3 2.1 3.2 2.1 5.2z"/>
	<path id="Layer" class="s2" d="m77.6 20c0 0.6-0.2 1.1-0.5 1.6-0.3 0.4-0.8 0.8-1.3 1-0.5 0.2-1.1 0.3-1.6 0.2-0.6-0.1-1.1-0.4-1.4-0.8-0.4-0.4-0.7-0.9-0.8-1.4-0.1-0.6-0.1-1.2 0.1-1.7 0.3-0.5 0.6-0.9 1.1-1.2 0.4-0.3 1-0.5 1.5-0.5 0.8 0 1.5 0.3 2 0.8 0.6 0.5 0.9 1.3 0.9 2z"/>
	<path id="Layer" class="s3" d="m101.3 11.6h2.2l5.6 11.2 5.7-11.2h2.1v15.4h-1.6v-12.8l-5.7 11.2h-1l-5.6-11.2v12.8h-1.7z"/>
	<path id="Layer" class="s3" d="m121.6 11.6h10.4v1.6h-8.6v5.2h7.7v1.6h-7.7v5.4h8.9v1.6h-10.7z"/>
	<path id="Layer" class="s3" d="m135.9 11.6h1.8l9.3 12.5v-12.5h1.7v15.4h-1.8l-9.2-12.5v12.5h-1.8z"/>
	<path id="Layer" fill-rule="evenodd" class="s3" d="m164.9 27l-1.8-3.9h-8.3l-1.8 3.9h-1.8l6.9-15.4h1.8l6.9 15.4zm-9.4-5.6h6.9l-3.5-7.9z"/>
	<path id="Layer" class="s4" d="m91.3 19c0.8-0.9 1.4-1.8 1.4-2.5 0-0.8-0.6-1.2-1.7-1.2-1.1 0-2.7 0.7-4 1.9l-1.5-2.9c1.9-1.4 4-2.2 6.1-2.2 3 0 5.2 1.5 5.2 3.9 0 1.6-1.3 3.2-2.9 4.9l-3 3h6.3v3.1h-11.2l-0.1-2.5z"/>
	<path id="Layer" class="s4" d="m60.6 16.9c-1-1.2-2.4-2-3.8-2-2.4 0-4.2 1.8-4.2 4.3 0 2.5 1.8 4.4 4.2 4.4 1.3 0 2.8-0.7 3.8-1.8l2.4 2.5c-1.6 1.8-4.1 2.9-6.4 2.9-4.6 0-8.1-3.4-8.1-7.9 0-4.5 3.5-7.8 8.3-7.8 2.2 0 4.6 1 6.2 2.6z"/>
</svg>