<svg width="167" height="40" viewBox="0 0 167 40" fill="none" xmlns="http://www.w3.org/2000/svg">
<path d="M32.6831 31.762L34.9691 34.011C32.1868 36.8447 28.624 38.7859 24.7345 39.5874C20.845 40.3889 16.8049 40.0144 13.129 38.5115C9.45318 37.0085 6.30795 34.4454 4.09409 31.1485C1.88024 27.8516 0.697998 23.9702 0.697998 19.999C0.697998 16.0278 1.88024 12.1464 4.09409 8.84954C6.30795 5.55265 9.45318 2.98945 13.129 1.48655C16.8049 -0.0163541 20.845 -0.390924 24.7345 0.410564C28.624 1.21205 32.1868 3.15331 34.9691 5.987L32.6831 8.236L30.5831 10.302C28.6572 8.34145 26.1914 6.99854 23.4996 6.44436C20.8078 5.89017 18.012 6.14979 15.4684 7.19014C12.9247 8.23049 10.7482 10.0045 9.21631 12.2861C7.68439 14.5678 6.86632 17.2538 6.86632 20.002C6.86632 22.7502 7.68439 25.4362 9.21631 27.7179C10.7482 29.9995 12.9247 31.7735 15.4684 32.8139C18.012 33.8542 20.8078 34.1138 23.4996 33.5596C26.1914 33.0055 28.6572 31.6626 30.5831 29.702L32.6831 31.762Z" fill="#004053"/>
<path d="M37.5041 20C37.507 24.4025 35.7749 28.6288 32.6831 31.763L30.5831 29.699L28.2971 27.45C30.2531 25.4636 31.3494 22.7877 31.3494 20C31.3494 17.2123 30.2531 14.5364 28.2971 12.55L30.5851 10.301L32.6851 8.235C35.777 11.3691 37.5091 15.5955 37.5061 19.998" fill="#2D9A4A"/>
<path d="M27.0541 20.051C27.0541 21.3018 26.6832 22.5245 25.9883 23.5644C25.2934 24.6044 24.3057 25.415 23.1502 25.8936C21.9946 26.3723 20.7231 26.4975 19.4963 26.2535C18.2696 26.0095 17.1428 25.4072 16.2583 24.5227C15.3739 23.6383 14.7716 22.5115 14.5276 21.2848C14.2836 20.058 14.4088 18.7865 14.8874 17.6309C15.3661 16.4754 16.1767 15.4877 17.2166 14.7928C18.2566 14.0979 19.4793 13.727 20.7301 13.727C22.4073 13.727 24.0158 14.3933 25.2018 15.5793C26.3878 16.7652 27.0541 18.3738 27.0541 20.051Z" fill="#61BA98"/>
<path d="M80.0629 25.218L81.0799 26.218C79.8419 27.4792 78.2565 28.3433 76.5256 28.7002C74.7947 29.057 72.9967 28.8905 71.3608 28.2218C69.725 27.553 68.3252 26.4124 67.3399 24.9453C66.3546 23.4781 65.8285 21.7508 65.8285 19.9835C65.8285 18.2162 66.3546 16.4889 67.3399 15.0217C68.3252 13.5546 69.725 12.414 71.3608 11.7452C72.9967 11.0765 74.7947 10.91 76.5256 11.2668C78.2565 11.6237 79.8419 12.4878 81.0799 13.749L80.0629 14.749L79.1279 15.668C78.2712 14.7954 77.174 14.1976 75.9762 13.9507C74.7784 13.7039 73.5343 13.8193 72.4023 14.2821C71.2703 14.7449 70.3018 15.5342 69.62 16.5495C68.9382 17.5648 68.5742 18.7601 68.5742 19.983C68.5742 21.2059 68.9382 22.4012 69.62 23.4165C70.3018 24.4318 71.2703 25.2211 72.4023 25.6839C73.5343 26.1467 74.7784 26.2621 75.9762 26.0153C77.174 25.7684 78.2712 25.1706 79.1279 24.298L80.0629 25.218Z" fill="#004053"/>
<path d="M82.208 19.985C82.2094 21.9439 81.4387 23.8245 80.063 25.219L79.128 24.301L78.111 23.301C78.9809 22.4171 79.4685 21.2267 79.4685 19.9865C79.4685 18.7463 78.9809 17.5559 78.111 16.672L79.129 15.672L80.064 14.753C81.4396 16.1476 82.2103 18.0281 82.209 19.987" fill="#2D9A4A"/>
<path d="M77.5579 20.007C77.5579 20.5636 77.3929 21.1076 77.0837 21.5704C76.7745 22.0331 76.335 22.3938 75.8208 22.6068C75.3066 22.8198 74.7408 22.8755 74.1949 22.7669C73.6491 22.6583 73.1477 22.3903 72.7541 21.9968C72.3606 21.6033 72.0926 21.1018 71.984 20.556C71.8754 20.0101 71.9311 19.4443 72.1441 18.9301C72.3571 18.4159 72.7178 17.9765 73.1806 17.6673C73.6433 17.358 74.1874 17.193 74.7439 17.193C75.4902 17.193 76.206 17.4895 76.7337 18.0172C77.2615 18.5449 77.5579 19.2607 77.5579 20.007Z" fill="#61BA98"/>
<path d="M101.332 11.6H103.51L109.142 22.776L114.752 11.6H116.908V27H115.28L115.258 14.196L109.648 25.372H108.592L103.004 14.196V27H101.332V11.6Z" fill="#32AE59"/>
<path d="M121.592 11.6H132.042V13.228H123.352V18.398H131.118V20.004H123.352V25.372H132.328V27H121.592V11.6Z" fill="#32AE59"/>
<path d="M135.922 11.6H137.748L146.988 24.118V11.6H148.726V27H146.922L137.682 14.504V27H135.922V11.6Z" fill="#32AE59"/>
<path d="M164.872 27L163.134 23.062H154.752L153.036 27H151.166L158.074 11.6H159.9L166.786 27H164.872ZM155.478 21.434H162.43L158.932 13.514L155.478 21.434Z" fill="#32AE59"/>
<path d="M91.3 18.957C92.119 18.117 92.728 17.172 92.728 16.542C92.728 15.744 92.119 15.282 91.048 15.282C89.851 15.282 88.339 15.996 86.974 17.151L85.525 14.316C87.415 12.93 89.473 12.09 91.615 12.09C94.597 12.09 96.76 13.644 96.76 15.975C96.76 17.571 95.542 19.23 93.904 20.889L90.88 23.913H97.18V27H85.966L85.945 24.459L91.3 18.957Z" fill="#204C65"/>
<path d="M60.65 16.902C59.638 15.67 58.164 14.878 56.822 14.878C54.446 14.878 52.642 16.748 52.642 19.212C52.642 21.698 54.446 23.59 56.822 23.59C58.098 23.59 59.572 22.886 60.65 21.786L63.004 24.316C61.354 26.054 58.89 27.176 56.602 27.176C51.96 27.176 48.506 23.788 48.506 19.256C48.506 14.812 52.048 11.468 56.756 11.468C59.044 11.468 61.442 12.48 62.982 14.108L60.65 16.902Z" fill="#204C65"/>
</svg>
