<svg id="notification-bing" xmlns="http://www.w3.org/2000/svg" width="22" height="22" viewBox="0 0 22 22">
  <path id="Vector" d="M0,0V3.053" transform="translate(11 5.903)" fill="none" stroke="#204c65" stroke-linecap="round" stroke-width="1"/>
  <path id="Vector-2" data-name="Vector" d="M8.174,0A6.1,6.1,0,0,0,2.069,6.105V8.03a4.76,4.76,0,0,1-.578,2.09L.328,12.063a1.955,1.955,0,0,0,1.1,2.979,21.4,21.4,0,0,0,13.5,0,2.035,2.035,0,0,0,1.1-2.979L14.866,10.12a4.794,4.794,0,0,1-.577-2.09V6.105A6.14,6.14,0,0,0,8.174,0Z" transform="translate(2.844 1.833)" fill="none" stroke="#204c65" stroke-linecap="round" stroke-width="1"/>
  <path id="Vector-3" data-name="Vector" d="M6.105,0A3.063,3.063,0,0,1,3.053,3.053,3.058,3.058,0,0,1,.9,2.154,3.058,3.058,0,0,1,0,0" transform="translate(7.947 17.252)" fill="none" stroke="#204c65" stroke-width="1"/>
  <path id="Vector-4" data-name="Vector" d="M0,0H22V22H0Z" fill="none" opacity="0"/>
</svg>
