<?xml version="1.0" encoding="utf-8"?>
<!-- Svg Vector Icons : http://www.onlinewebfonts.com/icon -->
<!DOCTYPE svg PUBLIC "-//W3C//DTD SVG 1.1//EN" "http://www.w3.org/Graphics/SVG/1.1/DTD/svg11.dtd">
<svg version="1.1" xmlns="http://www.w3.org/2000/svg" xmlns:xlink="http://www.w3.org/1999/xlink" x="0px" y="0px" viewBox="0 0 256 256" height="16px" width="16px" enable-background="new 0 0 256 256" xml:space="preserve">
<metadata> Svg Vector Icons : http://www.onlinewebfonts.com/icon </metadata>
<g><g><g><path fill="#204c65" d="M118.8,10.3c-31.7,3.9-58.1,24.9-68.6,54.4c-3.8,10.8-4.1,13.3-4.6,33.1l-0.3,18.2l-2.6,0.1c-1.4,0.1-4.1,0.1-5.9,0.1l-3.3,0.1v64.8V246H128h94.5v-64.8v-64.8l-4.1-0.1c-2.3-0.1-5-0.1-5.9-0.1l-1.7-0.1l-0.3-17.6c-0.2-13.7-0.5-18.6-1.3-22.2c-5.7-25.9-21.1-46.1-44.1-57.6c-6.7-3.4-15.4-6.3-22.2-7.5C136.2,10,124.5,9.6,118.8,10.3z M139.7,22.7c10.2,1.8,19,5.2,27.5,10.9C182.9,44,193.3,59.8,197.5,79c0.9,3.9,1,7.7,1.1,20.9v16.1H128H57.4l-0.2-13c-0.2-14.5,0.4-21.5,2.5-29.5c1.7-6.5,7.1-17.6,11.3-23.2C81.8,36,98.2,25.9,115.6,22.8C121.8,21.7,133.6,21.6,139.7,22.7z M135.9,141.1c11.2,3.9,17.9,16.2,14.9,27.7c-1.2,4.4-3.9,9.2-6.6,11.6l-2,1.8l1.7,14l1.7,14.1h-17.8c-16.7,0-17.7-0.1-17.5-1c0.1-0.5,1-6.9,1.8-14l1.6-13.1l-1.8-1.5c-4.1-3.5-7.7-11.5-7.7-17.2C104.4,147.1,120.4,135.8,135.9,141.1z"/></g></g></g>
</svg>