<svg xmlns="http://www.w3.org/2000/svg" width="16.083" height="16.083" viewBox="0 0 16.083 16.083">
  <g id="vuesax_linear_user-cirlce-add" data-name="vuesax/linear/user-cirlce-add" transform="translate(-684 -187.917)" opacity="0.8">
    <g id="user-cirlce-add" transform="translate(684 188)">
      <g id="Group" transform="translate(4.18 5.407)">
        <path id="Vector" d="M3.747,1.873A1.873,1.873,0,1,1,1.873,0,1.873,1.873,0,0,1,3.747,1.873Z" transform="translate(1.587)" fill="none" stroke="#204c65" stroke-linecap="round" stroke-linejoin="round" stroke-width="1.5"/>
        <path id="Vector-2" data-name="Vector" d="M6.92,2.82C6.92,1.267,5.373,0,3.46,0S0,1.26,0,2.82" transform="translate(0 5.24)" fill="none" stroke="#204c65" stroke-linecap="round" stroke-linejoin="round" stroke-width="1.5"/>
      </g>
      <path id="Vector-3" data-name="Vector" d="M12.667,6.333A6.313,6.313,0,1,1,8.8.493a2.7,2.7,0,0,0-.133.84,2.614,2.614,0,0,0,.387,1.373,2.456,2.456,0,0,0,.507.607A2.614,2.614,0,0,0,11.333,4a2.457,2.457,0,0,0,.833-.14A6.377,6.377,0,0,1,12.667,6.333Z" transform="translate(1.333 2)" fill="none" stroke="#204c65" stroke-linecap="round" stroke-linejoin="round" stroke-width="1.5"/>
      <path id="Vector-4" data-name="Vector" d="M5.333,2.667a2.4,2.4,0,0,1-.08.62,2.489,2.489,0,0,1-.307.753A2.6,2.6,0,0,1,3.5,5.193a2.457,2.457,0,0,1-.833.14A2.614,2.614,0,0,1,.893,4.647,2.456,2.456,0,0,1,.387,4.04,2.614,2.614,0,0,1,0,2.667a2.7,2.7,0,0,1,.133-.84A2.63,2.63,0,0,1,.753.807,2.663,2.663,0,0,1,2.667,0a2.629,2.629,0,0,1,1.98.887A2.656,2.656,0,0,1,5.333,2.667Z" transform="translate(10 0.667)" fill="none" stroke="#204c65" stroke-linecap="round" stroke-linejoin="round" stroke-width="1.5"/>
      <g id="Group-2" data-name="Group" transform="translate(11.673 2.347)">
        <path id="Vector-5" data-name="Vector" d="M1.987,0H0" transform="translate(0 0.973)" fill="none" stroke="#204c65" stroke-linecap="round" stroke-linejoin="round" stroke-width="1.5"/>
        <path id="Vector-6" data-name="Vector" d="M0,0V1.993" transform="translate(0.993)" fill="none" stroke="#204c65" stroke-linecap="round" stroke-linejoin="round" stroke-width="1.5"/>
      </g>
      <path id="Vector-7" data-name="Vector" d="M0,0H16V16H0Z" fill="none" opacity="0"/>
    </g>
  </g>
</svg>
