<svg xmlns="http://www.w3.org/2000/svg" width="16" height="16" viewBox="0 0 16 16">
  <g id="vuesax_linear_people" data-name="vuesax/linear/people" transform="translate(-620 -252)" opacity="0.8">
    <g id="people" transform="translate(620 252)">
      <g id="Group" transform="translate(10.22 1.333)">
        <path id="Vector" d="M1.78,3.44a.4.4,0,0,0-.127,0,1.723,1.723,0,1,1,.127,0Z" fill="none" stroke="#204c65" stroke-linecap="round" stroke-linejoin="round" stroke-width="1.5"/>
        <path id="Vector-2" data-name="Vector" d="M.02,3.293a3.756,3.756,0,0,0,2.627-.48,1.274,1.274,0,0,0,0-2.28A3.78,3.78,0,0,0,0,.06" transform="translate(1.073 5)" fill="none" stroke="#204c65" stroke-linecap="round" stroke-linejoin="round" stroke-width="1.5"/>
      </g>
      <g id="Group-2" data-name="Group" transform="translate(1.335 1.333)">
        <path id="Vector-3" data-name="Vector" d="M1.66,3.44a.4.4,0,0,1,.127,0,1.723,1.723,0,1,0-.127,0Z" transform="translate(0.985)" fill="none" stroke="#204c65" stroke-linecap="round" stroke-linejoin="round" stroke-width="1.5"/>
        <path id="Vector-4" data-name="Vector" d="M3.332,3.293a3.756,3.756,0,0,1-2.627-.48,1.274,1.274,0,0,1,0-2.28A3.78,3.78,0,0,1,3.352.06" transform="translate(0 5)" fill="none" stroke="#204c65" stroke-linecap="round" stroke-linejoin="round" stroke-width="1.5"/>
      </g>
      <g id="Group-3" data-name="Group" transform="translate(5.355 6.313)">
        <path id="Vector-5" data-name="Vector" d="M1.78,3.44a.4.4,0,0,0-.127,0,1.723,1.723,0,1,1,.127,0Z" transform="translate(0.865)" fill="none" stroke="#204c65" stroke-linecap="round" stroke-linejoin="round" stroke-width="1.5"/>
        <path id="Vector-6" data-name="Vector" d="M.705.53a1.274,1.274,0,0,0,0,2.28,3.785,3.785,0,0,0,3.88,0,1.274,1.274,0,0,0,0-2.28A3.816,3.816,0,0,0,.705.53Z" transform="translate(0 5.01)" fill="none" stroke="#204c65" stroke-linecap="round" stroke-linejoin="round" stroke-width="1.5"/>
      </g>
      <path id="Vector-7" data-name="Vector" d="M0,0H16V16H0Z" fill="none" opacity="0"/>
    </g>
  </g>
</svg>
