<svg xmlns="http://www.w3.org/2000/svg" width="16" height="16" viewBox="0 0 16 16">
  <g id="vuesax_linear_messages-2" data-name="vuesax/linear/messages-2" transform="translate(-428 -250)" opacity="0.8">
    <g id="messages-2" transform="translate(428 250)">
      <path id="Vector" d="M9.42,9.887l.26,2.107a.664.664,0,0,1-1,.653l-2.793-1.66a6.654,6.654,0,0,1-.9-.06A3.241,3.241,0,0,0,5.773,8.82,3.551,3.551,0,0,0,2.107,5.393,3.789,3.789,0,0,0,.027,6,4.226,4.226,0,0,1,0,5.493,5.7,5.7,0,0,1,5.887,0a5.7,5.7,0,0,1,5.887,5.493A5.37,5.37,0,0,1,9.42,9.887Z" transform="translate(2.893 1.333)" fill="none" stroke="#204c65" stroke-linecap="round" stroke-linejoin="round" stroke-width="1.5"/>
      <path id="Vector-2" data-name="Vector" d="M7.333,3.427a3.241,3.241,0,0,1-.787,2.107,3.723,3.723,0,0,1-2.88,1.313L1.927,7.88A.417.417,0,0,1,1.3,7.473L1.467,6.16A3.325,3.325,0,0,1,0,3.427,3.349,3.349,0,0,1,1.587.607,3.789,3.789,0,0,1,3.667,0,3.551,3.551,0,0,1,7.333,3.427Z" transform="translate(1.333 6.727)" fill="none" stroke="#204c65" stroke-linecap="round" stroke-linejoin="round" stroke-width="1.5"/>
      <path id="Vector-3" data-name="Vector" d="M0,0H16V16H0Z" fill="none" opacity="0"/>
    </g>
  </g>
</svg>
