<svg id="profile-2user" xmlns="http://www.w3.org/2000/svg" width="12" height="12" viewBox="0 0 12 12">
  <path id="Vector" d="M2.3,4.435a.909.909,0,0,0-.165,0,2.223,2.223,0,1,1,.165,0Z" transform="translate(2.28 1)" fill="none" stroke="#204c65" stroke-linecap="round" stroke-linejoin="round" stroke-width="1"/>
  <path id="Vector-2" data-name="Vector" d="M.065,0a1.749,1.749,0,0,1,1.75,1.75A1.752,1.752,0,0,1,.13,3.5.565.565,0,0,0,0,3.5" transform="translate(8.14 2)" fill="none" stroke="#204c65" stroke-linecap="round" stroke-linejoin="round" stroke-width="1"/>
  <path id="Vector-3" data-name="Vector" d="M.908.686a1.64,1.64,0,0,0,0,2.935,4.883,4.883,0,0,0,5.005,0,1.64,1.64,0,0,0,0-2.935A4.906,4.906,0,0,0,.908.686Z" transform="translate(1.173 6.594)" fill="none" stroke="#204c65" stroke-linecap="round" stroke-linejoin="round" stroke-width="1"/>
  <path id="Vector-4" data-name="Vector" d="M0,3a2.419,2.419,0,0,0,.98-.435A1.266,1.266,0,0,0,.98.43,2.487,2.487,0,0,0,.015,0" transform="translate(9.17 7)" fill="none" stroke="#204c65" stroke-linecap="round" stroke-linejoin="round" stroke-width="1"/>
  <path id="Vector-5" data-name="Vector" d="M0,0H12V12H0Z" transform="translate(12 12) rotate(180)" fill="none" opacity="0"/>
</svg>
