<svg xmlns="http://www.w3.org/2000/svg" xmlns:xlink="http://www.w3.org/1999/xlink" width="712" height="597" viewBox="0 0 712 597">
  <defs>
    <clipPath id="clip-path">
      <rect id="pexels-tom-fisk-9893729" width="712" height="597" rx="30" transform="translate(18)" fill="#fff"/>
    </clipPath>
  </defs>
  <g id="Group_20499" data-name="Group 20499" transform="translate(-728 -10)">
    <g id="Mask_Group_183" data-name="Mask Group 183" transform="translate(710 10)" opacity="0.5" clip-path="url(#clip-path)">
      <g id="Group_20449" data-name="Group 20449" transform="matrix(-0.995, -0.105, 0.105, -0.995, 930.93, 800.495)">
        <path id="Path_39569" data-name="Path 39569" d="M0,0S303.318,814.445,653.039,373.287s603.969-203.611,603.969-203.611" transform="translate(1.621 235.331)" fill="none" stroke="#fff" stroke-width="1"/>
        <path id="Path_39569-2" data-name="Path 39569" d="M0,0S303.318,814.445,653.039,373.287s603.969-203.611,603.969-203.611" transform="translate(1.621 216.162)" fill="none" stroke="#fff" stroke-width="1"/>
        <path id="Path_39569-3" data-name="Path 39569" d="M0,0S303.318,814.445,653.039,373.287s603.969-203.611,603.969-203.611" transform="translate(1.621 196.993)" fill="none" stroke="#fff" stroke-width="1"/>
        <path id="Path_39569-4" data-name="Path 39569" d="M0,0S303.318,814.445,653.039,373.287s603.969-203.611,603.969-203.611" transform="translate(1.621 177.824)" fill="none" stroke="#fff" stroke-width="1"/>
        <path id="Path_39569-5" data-name="Path 39569" d="M0,0S303.318,814.445,653.039,373.287s603.969-203.611,603.969-203.611" transform="translate(1.622 158.655)" fill="none" stroke="#fff" stroke-width="1"/>
        <path id="Path_39569-6" data-name="Path 39569" d="M0,0S303.318,814.445,653.039,373.287s603.969-203.611,603.969-203.611" transform="translate(1.622 139.486)" fill="none" stroke="#fff" stroke-width="1"/>
        <path id="Path_39569-7" data-name="Path 39569" d="M0,0S303.318,823.4,653.039,377.392s603.969-205.851,603.969-205.851" transform="translate(1.622 114.771)" fill="none" stroke="#fff" stroke-width="1"/>
        <path id="Path_39569-8" data-name="Path 39569" d="M0,0S303.318,814.445,653.039,373.287s603.969-203.611,603.969-203.611" transform="translate(0 95.845)" fill="none" stroke="#fff" stroke-width="1"/>
        <path id="Path_39569-9" data-name="Path 39569" d="M0,0S303.318,814.445,653.039,373.287s603.969-203.611,603.969-203.611" transform="translate(0 76.676)" fill="none" stroke="#fff" stroke-width="1"/>
        <path id="Path_39569-10" data-name="Path 39569" d="M0,0S303.318,814.445,653.039,373.287s603.969-203.611,603.969-203.611" transform="translate(0 57.507)" fill="none" stroke="#fff" stroke-width="1"/>
        <path id="Path_39569-11" data-name="Path 39569" d="M0,0S303.318,814.445,653.039,373.287s603.969-203.611,603.969-203.611" transform="translate(0 38.338)" fill="none" stroke="#fff" stroke-width="1"/>
        <path id="Path_39569-12" data-name="Path 39569" d="M0,0S303.318,814.445,653.039,373.287s603.969-203.611,603.969-203.611" transform="translate(0 19.169)" fill="none" stroke="#fff" stroke-width="1"/>
        <path id="Path_39569-13" data-name="Path 39569" d="M0,0S303.318,814.445,653.039,373.287s603.969-203.611,603.969-203.611" transform="translate(0 0)" fill="none" stroke="#fff" stroke-width="1"/>
      </g>
    </g>
    <g id="Group_20544" data-name="Group 20544" transform="translate(1 -38)">
      <g id="Group_48095641" data-name="Group 48095641" transform="translate(807 132)">
        <path id="Path_39677" data-name="Path 39677" d="M106.45,72.653S103.282,59.36,86.192,58.1,68.468,68.222,62.774,72.026s-9.5-5.693-17.725-1.9-6.329,8.862-10.76,10.125-3.169-1.9-9.5-.635-5.694,3.8-8.862,5.693-2.533,0-6.329.636-7.6,3.8-7.6,3.8H134.3s-3.953-15.9-9.5-17.725c-11.927-3.944-16.462,6.329-18.36.635Z" transform="translate(7 22)" fill="none" stroke="#204c65" stroke-miterlimit="10" stroke-width="1"/>
        <g id="Group_20546" data-name="Group 20546" transform="translate(-18.658 -23.206)">
          <path id="Path_39678" data-name="Path 39678" d="M186.916,430.656H176.332L179.4,223.963h4.446Z" transform="translate(4.381 5.695)" fill="#fff" stroke="#204c65" stroke-miterlimit="10" stroke-width="1"/>
          <path id="Path_39679" data-name="Path 39679" d="M183.849,240.748l-.245-16.785h-4.446l-.245,16.785Z" transform="translate(4.62 5.695)" fill="#204c65" stroke="#204c65" stroke-miterlimit="10" stroke-width="1"/>
          <path id="Path_39680" data-name="Path 39680" d="M181.77,227.5c3.455,0,6.255-14.563,6.255-32.527s-2.8-32.528-6.255-32.528-6.254,14.563-6.254,32.528S178.316,227.5,181.77,227.5Z" transform="translate(4.306 0)" fill="#6ecca1" stroke="#204c65" stroke-miterlimit="10" stroke-width="1"/>
          <path id="Path_39681" data-name="Path 39681" d="M238,255.076c1.7-3.009-9.615-12.6-25.264-21.421s-29.71-13.534-31.406-10.525,9.615,12.6,25.263,21.421S236.307,258.085,238,255.076Z" transform="translate(4.829 5.533)" fill="#6ecca1" stroke="#204c65" stroke-miterlimit="10" stroke-width="1"/>
          <path id="Path_39682" data-name="Path 39682" d="M160.568,244.575c15.647-8.818,26.952-18.412,25.261-21.422s-15.753,1.7-31.4,10.53-26.954,18.412-25.262,21.422S144.921,253.4,160.568,244.575Z" transform="translate(0 5.536)" fill="#6ecca1" stroke="#204c65" stroke-miterlimit="10" stroke-width="1"/>
          <path id="Path_39683" data-name="Path 39683" d="M181.542,229.934a6.808,6.808,0,1,0-6.808-6.808A6.808,6.808,0,0,0,181.542,229.934Z" transform="translate(4.233 4.987)" fill="#fff" stroke="#204c65" stroke-miterlimit="10" stroke-width="1"/>
        </g>
        <g id="Group_20545" data-name="Group 20545" transform="translate(5)">
          <path id="Path_39684" data-name="Path 39684" d="M542.5,298.48c0,27.808-16.449,50.354-36.752,50.354S469,326.288,469,298.48s16.449-123.41,36.751-123.41S542.5,270.658,542.5,298.48Z" fill="#6ecca1"/>
          <path id="Path_39685" data-name="Path 39685" d="M526.36,313.03l-11.129,4.113,2.229-6.7-5.32,7.851-5.306,1.955-.373-22,19.324-25.68-10.367,10.367,1.754-7.2-4.946,10.41-5.881,5.866-.589-34.364-2.114,50.123-18.318-19.411,10.065,13.674-9.49-1.05,11.719,4.084,5.809,7.893-1.007,24.171-6.758-4.587,6.542,9.59L499.1,413.32h9.389l-1.6-89.563Z" fill="#204c65"/>
          <path id="Path_39686" data-name="Path 39686" d="M525.971,257.76a7.989,7.989,0,0,1-6.686,8.972,7.989,7.989,0,0,1,6.686-8.972Z" fill="#fff"/>
          <path id="Path_39687" data-name="Path 39687" d="M537.039,273.32a7.987,7.987,0,0,1-6.685,8.972,7.987,7.987,0,0,1,6.685-8.972Z" fill="#fff"/>
          <path id="Path_39688" data-name="Path 39688" d="M537.04,303.613a7.988,7.988,0,0,1-9.317,6.2,7.986,7.986,0,0,1,9.317-6.2Z" fill="#fff"/>
          <path id="Path_39689" data-name="Path 39689" d="M476.2,303.613a7.988,7.988,0,0,0,9.317,6.2,7.986,7.986,0,0,0-9.317-6.2Z" fill="#fff"/>
          <path id="Path_39690" data-name="Path 39690" d="M524.247,291.047a7.989,7.989,0,0,1-6.686,8.972,7.987,7.987,0,0,1,6.686-8.972Z" fill="#fff"/>
          <path id="Path_39691" data-name="Path 39691" d="M521.383,240.822a7.987,7.987,0,0,1-6.686,8.972,7.989,7.989,0,0,1,6.686-8.972Z" fill="#fff"/>
          <path id="Path_39692" data-name="Path 39692" d="M514.786,253.732A7.991,7.991,0,0,1,508.1,262.7a7.989,7.989,0,0,1,6.686-8.973Z" fill="#fff"/>
          <path id="Path_39693" data-name="Path 39693" d="M530.442,244.332a7.989,7.989,0,0,1-6.686,8.972,7.989,7.989,0,0,1,6.686-8.972Z" fill="#fff"/>
          <path id="Path_39694" data-name="Path 39694" d="M479.541,244.332a7.989,7.989,0,0,0,6.686,8.972,7.989,7.989,0,0,0-6.686-8.972Z" fill="#fff"/>
          <path id="Path_39695" data-name="Path 39695" d="M522.807,225.049a7.989,7.989,0,0,1-6.686,8.972,7.989,7.989,0,0,1,6.686-8.972Z" fill="#fff"/>
          <path id="Path_39696" data-name="Path 39696" d="M519.574,208.281a9.292,9.292,0,0,1,0,6.039,9.424,9.424,0,0,1-4.228,4.328,9.292,9.292,0,0,1,0-6.039A9.43,9.43,0,0,1,519.574,208.281Z" fill="#fff"/>
          <path id="Path_39697" data-name="Path 39697" d="M496.337,203.9a8,8,0,0,1,3.81,10.525,7.994,7.994,0,0,1-3.81-10.525Z" fill="#fff"/>
          <path id="Path_39698" data-name="Path 39698" d="M507.165,223.943a9.411,9.411,0,0,1,1.97,5.723,9.31,9.31,0,0,1-2.6,5.449,9.4,9.4,0,0,1-1.969-5.722A9.305,9.305,0,0,1,507.165,223.943Z" fill="#fff"/>
          <path id="Path_39699" data-name="Path 39699" d="M506.589,194.1a9.411,9.411,0,0,1,1.97,5.723,9.314,9.314,0,0,1-2.6,5.45,9.411,9.411,0,0,1-1.97-5.723A9.314,9.314,0,0,1,506.589,194.1Z" fill="#fff"/>
          <path id="Path_39700" data-name="Path 39700" d="M482.273,257.76a7.989,7.989,0,0,0,6.686,8.972,7.987,7.987,0,0,0-6.686-8.972Z" fill="#fff"/>
          <path id="Path_39701" data-name="Path 39701" d="M475.961,276.119a7.989,7.989,0,0,0,6.686,8.972,7.989,7.989,0,0,0-6.686-8.972Z" fill="#fff"/>
          <path id="Path_39702" data-name="Path 39702" d="M492.711,282.775a7.991,7.991,0,0,0,6.686,8.973,7.989,7.989,0,0,0-6.686-8.973Z" fill="#fff"/>
          <path id="Path_39703" data-name="Path 39703" d="M497.3,257.342a7.984,7.984,0,0,0,3.839,10.51,7.984,7.984,0,0,0-3.839-10.51Z" fill="#fff"/>
          <path id="Path_39704" data-name="Path 39704" d="M485.439,325.05a7.994,7.994,0,0,0,8.4-7.4,7.994,7.994,0,0,0-8.4,7.4Z" fill="#fff"/>
          <path id="Path_39705" data-name="Path 39705" d="M517.99,321.342a9.341,9.341,0,0,0,3.552,4.889,9.444,9.444,0,0,0,5.967,1.006,9.337,9.337,0,0,0-3.552-4.888A9.44,9.44,0,0,0,517.99,321.342Z" fill="#fff"/>
          <path id="Path_39706" data-name="Path 39706" d="M489.219,240.822a7.987,7.987,0,0,0,6.686,8.972,7.989,7.989,0,0,0-6.686-8.972Z" fill="#fff"/>
          <path id="Path_39707" data-name="Path 39707" d="M489.16,225.912a7.989,7.989,0,0,0,6.686,8.972,7.989,7.989,0,0,0-6.686-8.972Z" fill="#fff"/>
        </g>
        <g id="Group_20547" data-name="Group 20547" transform="translate(5.077 -37.525)">
          <path id="Path_39732" data-name="Path 39732" d="M191.335,113.113a18.465,18.465,0,1,0-22.184-13.776A18.466,18.466,0,0,0,191.335,113.113Z" fill="#6ecca1" stroke="#204c65" stroke-miterlimit="10" stroke-width="1"/>
          <path id="Path_39733" data-name="Path 39733" d="M187.131,63v8.862" fill="none" stroke="#204c65" stroke-miterlimit="10" stroke-width="1"/>
          <path id="Path_39734" data-name="Path 39734" d="M187.131,118.4v8.863" fill="none" stroke="#204c65" stroke-miterlimit="10" stroke-width="1"/>
          <path id="Path_39735" data-name="Path 39735" d="M219.265,95.133H210.4" fill="none" stroke="#204c65" stroke-miterlimit="10" stroke-width="1"/>
          <path id="Path_39736" data-name="Path 39736" d="M163.862,95.133H155" fill="none" stroke="#204c65" stroke-miterlimit="10" stroke-width="1"/>
          <path id="Path_39737" data-name="Path 39737" d="M209.854,72.412l-6.268,6.268" fill="none" stroke="#204c65" stroke-miterlimit="10" stroke-width="1"/>
          <path id="Path_39738" data-name="Path 39738" d="M170.678,111.586l-6.268,6.268" fill="none" stroke="#204c65" stroke-miterlimit="10" stroke-width="1"/>
          <path id="Path_39739" data-name="Path 39739" d="M164.41,72.412l6.268,6.268" fill="none" stroke="#204c65" stroke-miterlimit="10" stroke-width="1"/>
          <path id="Path_39740" data-name="Path 39740" d="M203.586,111.586l6.268,6.268" fill="none" stroke="#204c65" stroke-miterlimit="10" stroke-width="1"/>
        </g>
        <path id="Path_39741" data-name="Path 39741" d="M263.2,117.5H246.86l-8.174,203.361h32.671Z" fill="#6ecca1" stroke="#204c65" stroke-miterlimit="10" stroke-width="1"/>
        <path id="Path_39742" data-name="Path 39742" d="M263.091,119.3H246.963a1.754,1.754,0,0,1,0-3.509h16.128a1.754,1.754,0,1,1,0,3.509Z" fill="#fff" stroke="#204c65" stroke-miterlimit="10" stroke-width="1"/>
        <path id="Path_39743" data-name="Path 39743" d="M246.481,126.852l-.3,7.329h17.674l-.286-7.329Z" fill="#fff" stroke="#204c65" stroke-miterlimit="10" stroke-width="1"/>
        <path id="Path_39744" data-name="Path 39744" d="M270.24,292.874l-.3-7.343H240.1l-.286,7.343Z" fill="#fff" stroke="#204c65" stroke-miterlimit="10" stroke-width="1"/>
        <path id="Path_39745" data-name="Path 39745" d="M241.934,240.186l-.3,7.342H268.42l-.3-7.342Z" fill="#fff" stroke="#204c65" stroke-miterlimit="10" stroke-width="1"/>
        <path id="Path_39746" data-name="Path 39746" d="M241.025,262.863l-.3,7.33h28.6l-.3-7.33Z" fill="#fff" stroke="#204c65" stroke-miterlimit="10" stroke-width="1"/>
        <path id="Path_39747" data-name="Path 39747" d="M242.846,217.523l-.3,7.33H267.5l-.286-7.33Z" fill="#fff" stroke="#204c65" stroke-miterlimit="10" stroke-width="1"/>
        <path id="Path_39748" data-name="Path 39748" d="M245.574,149.514l-.3,7.329h19.494l-.286-7.329Z" fill="#fff" stroke="#204c65" stroke-miterlimit="10" stroke-width="1"/>
        <path id="Path_39749" data-name="Path 39749" d="M243.752,194.859l-.3,7.33h23.133l-.286-7.33Z" fill="#fff" stroke="#204c65" stroke-miterlimit="10" stroke-width="1"/>
        <path id="Path_39750" data-name="Path 39750" d="M244.664,172.178l-.3,7.342h21.314l-.286-7.342Z" fill="#fff" stroke="#204c65" stroke-miterlimit="10" stroke-width="1"/>
        <path id="Path_39751" data-name="Path 39751" d="M307.2,117.5H290.864l-8.175,203.361h32.672Z" fill="#6ecca1" stroke="#204c65" stroke-miterlimit="10" stroke-width="1"/>
        <path id="Path_39752" data-name="Path 39752" d="M307.1,119.3H290.969a1.754,1.754,0,0,1,0-3.509H307.1a1.754,1.754,0,1,1,0,3.509Z" fill="#fff" stroke="#204c65" stroke-miterlimit="10" stroke-width="1"/>
        <path id="Path_39753" data-name="Path 39753" d="M290.488,126.852l-.3,7.329h17.675l-.286-7.329Z" fill="#fff" stroke="#204c65" stroke-miterlimit="10" stroke-width="1"/>
        <path id="Path_39754" data-name="Path 39754" d="M314.244,292.874l-.3-7.343H284.119l-.3,7.343Z" fill="#fff" stroke="#204c65" stroke-miterlimit="10" stroke-width="1"/>
        <path id="Path_39755" data-name="Path 39755" d="M285.94,240.186l-.3,7.342h26.784l-.3-7.342Z" fill="#fff" stroke="#204c65" stroke-miterlimit="10" stroke-width="1"/>
        <path id="Path_39756" data-name="Path 39756" d="M285.029,262.863l-.3,7.33h28.6l-.3-7.33Z" fill="#fff" stroke="#204c65" stroke-miterlimit="10" stroke-width="1"/>
        <path id="Path_39757" data-name="Path 39757" d="M286.848,217.523l-.3,7.33h24.965l-.3-7.33Z" fill="#fff" stroke="#204c65" stroke-miterlimit="10" stroke-width="1"/>
        <path id="Path_39758" data-name="Path 39758" d="M289.578,149.514l-.3,7.329h19.494l-.286-7.329Z" fill="#fff" stroke="#204c65" stroke-miterlimit="10" stroke-width="1"/>
        <path id="Path_39759" data-name="Path 39759" d="M287.758,194.859l-.3,7.33h23.133l-.286-7.33Z" fill="#fff" stroke="#204c65" stroke-miterlimit="10" stroke-width="1"/>
        <path id="Path_39760" data-name="Path 39760" d="M288.668,172.178l-.3,7.342h21.314l-.286-7.342Z" fill="#fff" stroke="#204c65" stroke-miterlimit="10" stroke-width="1"/>
        <path id="Path_39761" data-name="Path 39761" d="M351.206,117.5H334.87L326.7,320.865h32.672Z" fill="#6ecca1" stroke="#204c65" stroke-miterlimit="10" stroke-width="1"/>
        <path id="Path_39762" data-name="Path 39762" d="M250.944,86.647c-1.237-13.139-2.79-30.871,6.376-41.839,11.526-13.779,40.637-6.613,56.986-7.705,1.641-.113,3.219-.226,4.734-.351,1.477-.188,2.979-.326,4.52-.414h.025c6.123-.6,11.21-1.355,15.528-2.221.088-.013.176-.038.265-.05.745-.151,1.452-.3,2.146-.464.151-.038.3-.063.454-.1.657-.151,1.276-.3,1.894-.464.164-.038.341-.088.505-.125.593-.151,1.162-.314,1.717-.477.164-.05.341-.1.505-.151.543-.163,1.073-.326,1.578-.5l.454-.151c.5-.176,1-.339,1.478-.515l.416-.151c.48-.176.947-.364,1.389-.552l.341-.151c.454-.2.909-.389,1.35-.59.089-.038.165-.075.253-.113.454-.213.9-.427,1.326-.653a.57.57,0,0,1,.126-.063c5.605-2.886,9.228-6.363,13.975-10.278.025-.025.05-.038.076-.063.378-.314.757-.627,1.148-.941.1-.088.215-.176.316-.263.328-.264.669-.527,1.01-.8.152-.125.316-.238.467-.364.316-.238.644-.489.972-.74.19-.138.366-.276.556-.414.328-.238.656-.477,1-.728.215-.151.417-.3.631-.452.341-.238.7-.477,1.048-.715.227-.151.442-.3.682-.464.4-.264.82-.54,1.25-.8.2-.125.391-.251.606-.389.643-.4,1.3-.8,1.994-1.217,1.288-.765,2.626-1.468,3.964-2.158.429-.226.871-.427,1.313-.64.934-.452,1.869-.891,2.815-1.305.518-.226,1.023-.439,1.541-.653.921-.376,1.855-.728,2.79-1.079.505-.188,1-.376,1.5-.552q1.987-.678,3.977-1.242c.656-.188,1.325-.339,1.982-.5.719-.176,1.439-.364,2.158-.515.808-.176,1.6-.326,2.4-.477.543-.1,1.086-.188,1.628-.276.9-.138,1.793-.276,2.677-.376.29-.038.581-.05.871-.088A55.128,55.128,0,0,1,420.6.2h.177c1.136.088,2.247.226,3.345.4a35.2,35.2,0,0,1,12.2,4.141c15.162-5.8,31.776-6.626,43.264-.376,20.59-7.542,43.566-5.973,52.656,10.014,10.983,19.313-4.557,18.284-15.137,15.348-5.668-1.581-1.186,12.913-13.773,16.427-2.575.715-17.27,19.5-19.593,18.171a.448.448,0,0,1-.076.063c-.4.377-.807.766-1.211,1.142l-.417.376c-.328.3-.657.59-1,.891-.164.151-.329.289-.505.427-.329.276-.669.552-1.01.828-.164.125-.316.251-.493.376-.378.289-.77.552-1.174.816-.656.653-1.351,1.305-2.083,1.92-10.566,8.822-25.3,13.6-39.034,13.415A49.488,49.488,0,0,1,417.9,80.2a62.7,62.7,0,0,1-23.4,4.367c-6.969-.088-13.42-2.008-19.631-4.719-1.755.715-3.548,1.355-5.365,1.908-.48.151-.96.289-1.44.427-1.136.314-2.259.6-3.408.866-.884.2-1.755.376-2.639.54-.58.1-1.149.2-1.729.289-1.364.213-2.74.364-4.1.489l-1.048.075c-1.528.1-3.055.163-4.57.138-.808,0-1.6-.063-2.4-.113-1.3,15.461-1.78,31.511-1.78,31.511h-9.531s2.777-2.51.24-29.378c-.139-1.443-.278-2.962-.4-4.493-.379-.126-.745-.264-1.124-.389-.277-.1-.543-.2-.808-.3q-1.5-.546-2.954-1.167c-.113-.05-.227-.088-.341-.138-1.161-.5-2.322-1.029-3.471-1.569-.038-.012-.076-.038-.114-.05-1.149-.552-2.3-1.129-3.434-1.719-.025,0-.05-.025-.063-.038-5.529-2.874-10.958-6.112-16.487-8.985h-.013c-.126.653-.252,1.33-.366,2.071C304.977,87.45,304.131,116,304.131,116H294.6s2.778-2.51.24-29.378c-.694-7.4-1.49-16.264-.416-24.559-.707-.213-1.4-.452-2.121-.64-16.046-4.2-26.2-9.236-28.721,8.4S260.2,116,260.2,116H250.7s2.778-2.51.24-29.378Z" fill="#204c65" opacity="0.15"/>
        <path id="Path_39763" data-name="Path 39763" d="M351.1,119.3H334.973a1.754,1.754,0,0,1,0-3.509H351.1a1.754,1.754,0,1,1,0,3.509Z" fill="#fff" stroke="#204c65" stroke-miterlimit="10" stroke-width="1"/>
        <path id="Path_39764" data-name="Path 39764" d="M334.49,126.852l-.3,7.329h17.675l-.286-7.329Z" fill="#fff" stroke="#204c65" stroke-miterlimit="10" stroke-width="1"/>
        <path id="Path_39765" data-name="Path 39765" d="M358.248,292.874l-.3-7.343H328.123l-.3,7.343Z" fill="#fff" stroke="#204c65" stroke-miterlimit="10" stroke-width="1"/>
        <path id="Path_39766" data-name="Path 39766" d="M329.942,240.186l-.3,7.342h26.784l-.3-7.342Z" fill="#fff" stroke="#204c65" stroke-miterlimit="10" stroke-width="1"/>
        <path id="Path_39767" data-name="Path 39767" d="M329.035,262.863l-.3,7.33h28.605l-.3-7.33Z" fill="#fff" stroke="#204c65" stroke-miterlimit="10" stroke-width="1"/>
        <path id="Path_39768" data-name="Path 39768" d="M330.852,217.523l-.3,7.33h24.965l-.3-7.33Z" fill="#fff" stroke="#204c65" stroke-miterlimit="10" stroke-width="1"/>
        <path id="Path_39769" data-name="Path 39769" d="M333.584,149.514l-.3,7.329h19.494l-.286-7.329Z" fill="#fff" stroke="#204c65" stroke-miterlimit="10" stroke-width="1"/>
        <path id="Path_39770" data-name="Path 39770" d="M331.764,194.859l-.3,7.33h23.146l-.3-7.33Z" fill="#fff" stroke="#204c65" stroke-miterlimit="10" stroke-width="1"/>
        <path id="Path_39771" data-name="Path 39771" d="M332.672,172.178l-.3,7.342H353.7l-.3-7.342Z" fill="#fff" stroke="#204c65" stroke-miterlimit="10" stroke-width="1"/>
        <path id="Path_39772" data-name="Path 39772" d="M436,296H226V413H436Z" fill="#fff" stroke="#204c65" stroke-miterlimit="10" stroke-width="1"/>
        <path id="Path_39773" data-name="Path 39773" d="M291.138,340.789H254.463v72.245h36.675Z" fill="#204c65" stroke="#204c65" stroke-miterlimit="10" stroke-width="1"/>
        <path id="Path_39774" data-name="Path 39774" d="M285.12,340.789H254.463v72.245H285.12Z" fill="#204c65" stroke="#204c65" stroke-linecap="round" stroke-linejoin="round" stroke-width="1"/>
        <path id="Path_39775" data-name="Path 39775" d="M356.819,340.789H320.145v72.245h36.674Z" fill="#204c65" stroke="#204c65" stroke-miterlimit="10" stroke-width="1"/>
        <path id="Path_39776" data-name="Path 39776" d="M350.8,340.789H320.145v72.245H350.8Z" fill="#204c65" stroke="#204c65" stroke-linecap="round" stroke-linejoin="round" stroke-width="1"/>
        <path id="Path_39777" data-name="Path 39777" d="M422.5,340.789H385.826v72.245H422.5Z" fill="#204c65" stroke="#204c65" stroke-miterlimit="10" stroke-width="1"/>
        <path id="Path_39778" data-name="Path 39778" d="M416.484,340.789H385.826v72.245h30.658Z" fill="#204c65" stroke="#204c65" stroke-linecap="round" stroke-linejoin="round" stroke-width="1"/>
        <path id="Path_39779" data-name="Path 39779" d="M287.292,309.311H257.414v18.35h29.878Z" fill="#204c65" stroke="#204c65" stroke-linecap="round" stroke-linejoin="round" stroke-width="1"/>
        <path id="Path_39780" data-name="Path 39780" d="M285.6,309.311H255.723v18.35H285.6Z" fill="#f0f9f6" stroke="#204c65" stroke-miterlimit="10" stroke-width="1"/>
        <path id="Path_39781" data-name="Path 39781" d="M352.921,309.311H323.043v18.35h29.878Z" fill="#204c65" stroke="#204c65" stroke-linecap="round" stroke-linejoin="round" stroke-width="1"/>
        <path id="Path_39782" data-name="Path 39782" d="M351.218,309.311H321.34v18.35h29.878Z" fill="#f0f9f6" stroke="#204c65" stroke-miterlimit="10" stroke-width="1"/>
        <path id="Path_39783" data-name="Path 39783" d="M418.538,309.311H388.66v18.35h29.878Z" fill="#204c65" stroke="#204c65" stroke-linecap="round" stroke-linejoin="round" stroke-width="1"/>
        <path id="Path_39784" data-name="Path 39784" d="M416.835,309.311H386.957v18.35h29.878Z" fill="#f0f9f6" stroke="#204c65" stroke-miterlimit="10" stroke-width="1"/>
        <path id="Path_39785" data-name="Path 39785" d="M249.031,307.871h-15.7v104.7h15.7Z" fill="#204c65" stroke="#204c65" stroke-linecap="round" stroke-linejoin="round" stroke-width="1"/>
        <path id="Path_39786" data-name="Path 39786" d="M251.5,307.871H235.8v104.7h15.7Z" fill="#6ecca1" stroke="#204c65" stroke-miterlimit="10" stroke-width="1"/>
        <path id="Path_39787" data-name="Path 39787" d="M313.086,307.871h-15.7v104.7h15.7Z" fill="#204c65" stroke="#204c65" stroke-linecap="round" stroke-linejoin="round" stroke-width="1"/>
        <path id="Path_39788" data-name="Path 39788" d="M315.545,307.871h-15.7v104.7h15.7Z" fill="#6ecca1" stroke="#204c65" stroke-miterlimit="10" stroke-width="1"/>
        <path id="Path_39789" data-name="Path 39789" d="M378.678,307.871h-15.7v104.7h15.7Z" fill="#204c65" stroke="#204c65" stroke-linecap="round" stroke-linejoin="round" stroke-width="1"/>
        <path id="Path_39790" data-name="Path 39790" d="M381.133,307.871h-15.7v104.7h15.7Z" fill="#6ecca1" stroke="#204c65" stroke-miterlimit="10" stroke-width="1"/>
        <path id="Path_39791" data-name="Path 39791" d="M3,413H550" fill="none" stroke="#204c65" stroke-miterlimit="10" stroke-width="1"/>
        <g id="Group_20541" data-name="Group 20541" transform="translate(0.314 9.29)" opacity="0.21">
          <path id="Path_39792" data-name="Path 39792" d="M116.033,401.521a10,10,0,1,1,10-10A10,10,0,0,1,116.033,401.521Z" fill="#204c65"/>
          <path id="Path_39793" data-name="Path 39793" d="M106.02,384.571a8.788,8.788,0,1,1-8.788-8.788A8.786,8.786,0,0,1,106.02,384.571Z" fill="#204c65"/>
          <path id="Path_39794" data-name="Path 39794" d="M76.975,388.581a2.487,2.487,0,1,1-2.487-2.487A2.492,2.492,0,0,1,76.975,388.581Z" fill="#204c65"/>
          <path id="Path_39795" data-name="Path 39795" d="M83.852,372.53a5.161,5.161,0,1,1-5.161-5.161A5.163,5.163,0,0,1,83.852,372.53Z" fill="#204c65"/>
        </g>
        <g id="Group_20542" data-name="Group 20542" transform="translate(7.536 12.219)">
          <path id="Path_39796" data-name="Path 39796" d="M123.526,388.334h121.8v-4.855h19.531l11.9,7.051.349,10.98H250.283v-7.053H204.751s1.615,4.857,1.15,8.086h-2.08s-.464-6.239-1.731-7.971H194V407.4H153.909V395.039h-6.75a14.288,14.288,0,0,0-1.824,7.574H143.1a15.375,15.375,0,0,1,1.475-7.574H126.164l-2.66-6.7Z" transform="translate(0.261 2.625)" fill="#204c65" stroke="#204c65" stroke-linecap="round" stroke-linejoin="round" stroke-width="1"/>
          <path id="Path_39797" data-name="Path 39797" d="M243.352,358.2a6.536,6.536,0,0,1,1.057-3.183c.965-1.255,3.66-1.837,4.439-1.929s20.332.2,23.225,1.254,3.474,2.114,3.474,2.6,5.681,14.651,5.681,14.651a15.324,15.324,0,0,1,1.731,3.764c.384,1.65-.092,15.324-.581,15.615a6.141,6.141,0,0,1-2.021.291l.2,1.929s2.986,0,3.079.581,0,11.851,0,11.851H268.018v-9.644s-1.638-6.75-9.83-8.1-11.467-.383-11.467-.383h-3.951V360.616l.581-2.4Z" transform="translate(7.462 0.789)" fill="#fff" stroke="#204c65" stroke-linecap="round" stroke-linejoin="round" stroke-width="1"/>
          <path id="Path_39798" data-name="Path 39798" d="M255.589,359.65v10.794h19.553l-4.334-11.27H256.262Z" transform="translate(8.235 1.158)" fill="none" stroke="#204c65" stroke-miterlimit="10" stroke-width="1"/>
          <path id="Path_39799" data-name="Path 39799" d="M254.219,358.543v24.1" transform="translate(8.153 1.119)" fill="none" stroke="#204c65" stroke-miterlimit="10" stroke-width="1"/>
          <path id="Path_39800" data-name="Path 39800" d="M268.607,389.633s-7.714-6.844-11.281-7.808-11.467,0-11.467,0" transform="translate(7.648 2.499)" fill="none" stroke="#204c65" stroke-miterlimit="10" stroke-width="1"/>
          <path id="Path_39801" data-name="Path 39801" d="M119.177,340H250.093v53.456H119.177Z" transform="translate(0)" fill="#6ecca1" stroke="#204c65" stroke-miterlimit="10" stroke-width="1"/>
          <path id="Path_39802" data-name="Path 39802" d="M119.177,386.3H250.093v4.357H119.177Z" transform="translate(0 2.795)" fill="#f0f9f6" stroke="#204c65" stroke-linecap="round" stroke-linejoin="round" stroke-width="1"/>
          <path id="Path_39803" data-name="Path 39803" d="M203.785,391.062H236.3v12.769H203.785Z" transform="translate(5.108 3.083)" fill="#204c65" stroke="#204c65" stroke-miterlimit="10" stroke-width="1"/>
          <path id="Path_39804" data-name="Path 39804" d="M242.924,403.132a11.142,11.142,0,1,1,11.142,11.142A11.145,11.145,0,0,1,242.924,403.132Z" transform="translate(7.471 3.139)" fill="#204c65" stroke="#204c65" stroke-miterlimit="10" stroke-width="1"/>
          <path id="Path_39805" data-name="Path 39805" d="M247.744,402.844a6.03,6.03,0,1,1,6.03,6.03A6.025,6.025,0,0,1,247.744,402.844Z" transform="translate(7.762 3.43)" fill="#f0f9f6" stroke="#204c65" stroke-linecap="round" stroke-linejoin="round" stroke-width="1"/>
          <path id="Path_39806" data-name="Path 39806" d="M176.623,403.132a11.142,11.142,0,1,1,11.142,11.142A11.145,11.145,0,0,1,176.623,403.132Z" transform="translate(3.468 3.139)" fill="#204c65" stroke="#204c65" stroke-miterlimit="10" stroke-width="1"/>
          <path id="Path_39807" data-name="Path 39807" d="M181.455,402.844a6.03,6.03,0,1,1,6.03,6.03A6.025,6.025,0,0,1,181.455,402.844Z" transform="translate(3.76 3.43)" fill="#f0f9f6" stroke="#204c65" stroke-linecap="round" stroke-linejoin="round" stroke-width="1"/>
          <path id="Path_39808" data-name="Path 39808" d="M147.049,403.132a11.142,11.142,0,1,1,11.142,11.142A11.145,11.145,0,0,1,147.049,403.132Z" transform="translate(1.683 3.139)" fill="#204c65" stroke="#204c65" stroke-miterlimit="10" stroke-width="1"/>
          <path id="Path_39809" data-name="Path 39809" d="M151.883,402.844a6.03,6.03,0,1,1,6.029,6.03A6.024,6.024,0,0,1,151.883,402.844Z" transform="translate(1.975 3.43)" fill="#f0f9f6" stroke="#204c65" stroke-linecap="round" stroke-linejoin="round" stroke-width="1"/>
          <path id="Path_39810" data-name="Path 39810" d="M276.451,391.74v10.515" transform="translate(9.495 3.124)" fill="none" stroke="#204c65" stroke-linecap="round" stroke-linejoin="round" stroke-width="1"/>
          <path id="Path_39811" data-name="Path 39811" d="M271.979,359.438h2.033v14.244h-2.033Z" transform="translate(9.225 1.173)" fill="#204c65" stroke="#204c65" stroke-miterlimit="10" stroke-width="1"/>
        </g>
        <path id="Path_39812" data-name="Path 39812" d="M504.044,110.8s-2.55-10.7-16.3-11.717-14.259,8.148-18.847,11.2-7.644-4.588-14.26-1.532-5.093,7.129-8.662,8.148-2.551-1.532-7.644-.514-4.588,3.056-7.13,4.588-2.037,0-5.093.514A15.558,15.558,0,0,0,420,124.543H526.453s-3.178-12.789-7.644-14.26c-9.6-3.169-13.241,5.093-14.773.513Z" fill="none" stroke="#204c65" stroke-miterlimit="10" stroke-width="1"/>
        <path id="Path_39813" data-name="Path 39813" d="M487.03,413.066H435.971V354.343H487.03Z" fill="#fff" stroke="#204c65" stroke-miterlimit="10" stroke-width="1"/>
        <path id="Path_39814" data-name="Path 39814" d="M501.015,413.066H471.049V354.343h29.966Z" fill="#fff" stroke="#204c65" stroke-miterlimit="10" stroke-width="1"/>
        <path id="Path_39815" data-name="Path 39815" d="M492.827,394.52H481.082V370.243h11.745Z" fill="#fff" stroke="#204c65" stroke-miterlimit="10" stroke-width="1"/>
        <path id="Path_39816" data-name="Path 39816" d="M496.045,394.52h-6.891V370.243h6.891Z" fill="#f0f9f6" stroke="#204c65" stroke-miterlimit="10" stroke-width="1"/>
        <path id="Path_39817" data-name="Path 39817" d="M490.226,371.648h4.725" fill="none" stroke="#204c65" stroke-miterlimit="10" stroke-width="1"/>
        <path id="Path_39818" data-name="Path 39818" d="M490.226,373.148h4.725" fill="none" stroke="#204c65" stroke-miterlimit="10" stroke-width="1"/>
        <path id="Path_39819" data-name="Path 39819" d="M490.226,374.643h4.725" fill="none" stroke="#204c65" stroke-miterlimit="10" stroke-width="1"/>
        <path id="Path_39820" data-name="Path 39820" d="M490.226,376.143h4.725" fill="none" stroke="#204c65" stroke-miterlimit="10" stroke-width="1"/>
        <path id="Path_39821" data-name="Path 39821" d="M490.226,377.643h4.725" fill="none" stroke="#204c65" stroke-miterlimit="10" stroke-width="1"/>
        <path id="Path_39822" data-name="Path 39822" d="M501.951,355.314H435.957v-3.1h65.994Z" fill="#f0f9f6" stroke="#204c65" stroke-miterlimit="10" stroke-width="1"/>
        <path id="Path_39823" data-name="Path 39823" d="M471.108,352.211h30.849v3.1H471.108Z" fill="#204c65" stroke="#204c65" stroke-miterlimit="10" stroke-width="1"/>
        <path id="Path_39824" data-name="Path 39824" d="M458.388,366.638h-1.554v-1.779h-7.142v1.779h-1.555a4.592,4.592,0,0,0-4.589,4.589v25.615a4.592,4.592,0,0,0,4.589,4.589h10.244a4.592,4.592,0,0,0,4.59-4.589V371.227a4.592,4.592,0,0,0-4.59-4.589Zm2.7,30.2a2.709,2.709,0,0,1-2.7,2.7H448.144a2.709,2.709,0,0,1-2.7-2.7V371.227a2.709,2.709,0,0,1,2.7-2.7h10.244a2.709,2.709,0,0,1,2.7,2.7Z" fill="#6ecca1"/>
        <path id="Path_39825" data-name="Path 39825" d="M460.091,376.91H446.215V371.4h13.876Z" fill="#6ecca1"/>
        <path id="Path_39826" data-name="Path 39826" d="M460.091,383.576H446.215V378.07h13.876Z" fill="#6ecca1"/>
        <path id="Path_39827" data-name="Path 39827" d="M460.091,390.25H446.215v-5.506h13.876Z" fill="#6ecca1"/>
        <path id="Path_39828" data-name="Path 39828" d="M460.091,396.918H446.215v-5.506h13.876Z" fill="#6ecca1"/>
        <path id="Path_39829" data-name="Path 39829" d="M424.068,294.816h-2.623V280.461h2.623Z" fill="#204c65" stroke="#204c65" stroke-miterlimit="10" stroke-width="1"/>
        <path id="Path_39830" data-name="Path 39830" d="M396.062,294.816h-2.623V280.461h2.623Z" fill="#204c65" stroke="#204c65" stroke-miterlimit="10" stroke-width="1"/>
        <path id="Path_39831" data-name="Path 39831" d="M430.369,268H393.974L381,292.583h36.4Z" fill="#fff" stroke="#204c65" stroke-miterlimit="10" stroke-width="1"/>
        <path id="Path_39832" data-name="Path 39832" d="M427.738,269.311H395.224l-11.583,21.96h32.514Z" fill="#6ecca1" stroke="#204c65" stroke-miterlimit="10" stroke-width="1"/>
        <path id="Path_39833" data-name="Path 39833" d="M421.957,269.311l-11.583,21.96" fill="none" stroke="#204c65" stroke-miterlimit="10" stroke-width="1"/>
        <path id="Path_39834" data-name="Path 39834" d="M415.115,269.311l-11.583,21.96" fill="none" stroke="#204c65" stroke-miterlimit="10" stroke-width="1"/>
        <path id="Path_39835" data-name="Path 39835" d="M408.268,269.311l-11.584,21.96" fill="none" stroke="#204c65" stroke-miterlimit="10" stroke-width="1"/>
        <path id="Path_39836" data-name="Path 39836" d="M401.42,269.311l-11.583,21.96" fill="none" stroke="#204c65" stroke-miterlimit="10" stroke-width="1"/>
        <path id="Path_39837" data-name="Path 39837" d="M392.821,273.779h32.4" fill="none" stroke="#204c65" stroke-miterlimit="10" stroke-width="1"/>
        <path id="Path_39838" data-name="Path 39838" d="M390.085,279.254h32.4" fill="none" stroke="#204c65" stroke-miterlimit="10" stroke-width="1"/>
        <path id="Path_39839" data-name="Path 39839" d="M387.347,284.729h32.4" fill="none" stroke="#204c65" stroke-miterlimit="10" stroke-width="1"/>
        <g id="Group_20543" data-name="Group 20543" transform="translate(0 9.744)">
          <path id="Path_39840" data-name="Path 39840" d="M524.736,412.469h.461a1.959,1.959,0,0,0,1.959-1.959V376.958A1.959,1.959,0,0,0,525.2,375h-.461a1.959,1.959,0,0,0-1.959,1.958V410.51A1.959,1.959,0,0,0,524.736,412.469Z" fill="#6ecca1" stroke="#204c65" stroke-miterlimit="10" stroke-width="1"/>
          <path id="Path_39841" data-name="Path 39841" d="M521.5,406.688h7.025a1.381,1.381,0,0,1,1.01.435l3.126,3.369a1.373,1.373,0,0,1-1.01,2.307H518.38a1.373,1.373,0,0,1-1.01-2.307l3.126-3.369a1.381,1.381,0,0,1,1.01-.435Z" fill="#6ecca1" stroke="#204c65" stroke-miterlimit="10" stroke-width="1"/>
          <path id="Path_39842" data-name="Path 39842" d="M521.5,401.039h7.025a1.385,1.385,0,0,1,1.01.435l3.126,3.369a1.373,1.373,0,0,1-1.01,2.307H518.38a1.373,1.373,0,0,1-1.01-2.307l3.126-3.369a1.385,1.385,0,0,1,1.01-.435Z" fill="#6ecca1" stroke="#204c65" stroke-miterlimit="10" stroke-width="1"/>
          <path id="Path_39843" data-name="Path 39843" d="M521.5,395.391h7.025a1.381,1.381,0,0,1,1.01.435l3.126,3.369a1.373,1.373,0,0,1-1.01,2.307H518.38a1.373,1.373,0,0,1-1.01-2.307l3.126-3.369a1.381,1.381,0,0,1,1.01-.435Z" fill="#6ecca1" stroke="#204c65" stroke-miterlimit="10" stroke-width="1"/>
          <path id="Path_39844" data-name="Path 39844" d="M521.5,389.74h7.025a1.36,1.36,0,0,1,1.01.444l3.126,3.369a1.373,1.373,0,0,1-1.01,2.307H518.38a1.373,1.373,0,0,1-1.01-2.307l3.126-3.369a1.394,1.394,0,0,1,1.01-.444Z" fill="#6ecca1" stroke="#204c65" stroke-miterlimit="10" stroke-width="1"/>
          <path id="Path_39845" data-name="Path 39845" d="M521.5,384.1h7.025a1.381,1.381,0,0,1,1.01.435l3.126,3.369a1.373,1.373,0,0,1-1.01,2.307H518.38a1.373,1.373,0,0,1-1.01-2.307l3.126-3.369a1.381,1.381,0,0,1,1.01-.435Z" fill="#6ecca1" stroke="#204c65" stroke-miterlimit="10" stroke-width="1"/>
          <path id="Path_39846" data-name="Path 39846" d="M521.5,378.447h7.025a1.382,1.382,0,0,1,1.01.436l3.126,3.369a1.373,1.373,0,0,1-1.01,2.307H518.38a1.373,1.373,0,0,1-1.01-2.307l3.126-3.369a1.382,1.382,0,0,1,1.01-.436Z" fill="#6ecca1" stroke="#204c65" stroke-miterlimit="10" stroke-width="1"/>
        </g>
      </g>
      <g id="Group_20494" data-name="Group 20494" transform="translate(809 361.998)">
        <g id="Group_20450" data-name="Group 20450" transform="translate(0 0.002)">
          <path id="Path_39634" data-name="Path 39634" d="M361.5,193.535c.852-.067,5.035,8.5,18.124,8.14s23.59-15.006,23.59-15.006,4.521-7.622,7.951-10.378,3.969-3.119,3.969-3.119a2.794,2.794,0,0,1,0,3.119,49,49,0,0,1-4.045,4.841,4.348,4.348,0,0,1,1.8,5.537c-1.7,4.3-6.479,3.957-6.479,3.957s-9.7,42.967-49.813,22.549Z" transform="translate(-297.001 -143.864)" fill="#f0f9f6"/>
          <path id="Path_39635" data-name="Path 39635" d="M374.6,217.177a26.345,26.345,0,0,0,11.33-2.458c13.493-6.334,18.258-23.123,18.893-25.591,1.151-.016,5.022-.363,6.537-4.2a4.674,4.674,0,0,0-1.568-5.743,43.768,43.768,0,0,0,3.783-4.569,3.159,3.159,0,0,0-.016-3.557.384.384,0,0,0-.522-.088c-.023.015-.591.4-3.994,3.138-3.445,2.768-7.855,10.168-8.041,10.482-.085.117-10.526,14.468-23.27,14.818-10.2.275-14.841-4.892-16.822-7.1-.676-.755-.952-1.066-1.322-1.038a.384.384,0,0,0-.343.29l-4.906,19.64a.384.384,0,0,0,.2.435c7.259,3.7,13.969,5.546,20.064,5.546m29.923-28.822a.385.385,0,0,0-.375.3c-.042.186-4.383,18.724-18.549,25.371-8.451,3.966-18.693,2.976-30.442-2.941l4.7-18.8c.146.152.321.347.484.529,2.051,2.288,6.854,7.649,17.414,7.356,13.128-.36,23.786-15.018,23.892-15.166.063-.1,4.543-7.622,7.879-10.3,2.151-1.728,3.158-2.51,3.608-2.852a2.4,2.4,0,0,1-.2,2.346,48.937,48.937,0,0,1-4,4.784.384.384,0,0,0,.095.6,3.945,3.945,0,0,1,1.624,5.059c-1.57,3.981-5.909,3.727-6.094,3.714h-.027" transform="translate(-295.116 -141.978)" fill="#204c65"/>
          <path id="Path_39636" data-name="Path 39636" d="M2.271,231.623S6.2,206.27,20.076,200.032s32.651-5.37,37.828-2.255,18.671,17.2,18.671,17.2L66.99,233.889s-3.445,15.1-5.6,26.927c0,0-9.434,28.994-15.06,26.778s-21.89-11.568-28.262-25.956l-3.1-32.035Z" transform="translate(-1.887 -162.312)" fill="#f0f9f6"/>
          <path id="Path_39637" data-name="Path 39637" d="M45.08,286.1a2.655,2.655,0,0,0,1.134-.276c5.73-2.7,13.334-25.9,13.656-26.889a.4.4,0,0,0,.012-.05c2.07-11.364,5.374-25.932,5.586-26.864l9.563-18.871a.384.384,0,0,0-.065-.44c-.552-.577-13.588-14.157-18.75-17.263-5.587-3.362-24.5-3.917-38.184,2.234C4.124,203.929.166,228.516,0,229.56a.384.384,0,0,0,.44.438l12.3-1.955L15.8,259.671a.38.38,0,0,0,.031.119C22.375,274.566,39,283.858,44.3,285.948a2.1,2.1,0,0,0,.776.147m14.051-27.378c-.289.882-7.89,23.883-13.245,26.407a1.587,1.587,0,0,1-1.3.108c-5.224-2.057-21.569-11.19-28.026-25.7l-3.092-31.972a.384.384,0,0,0-.443-.343L.854,229.155c.661-3.643,5.061-25.188,17.493-30.776,13.877-6.237,32.605-5.205,37.473-2.276,4.744,2.855,16.751,15.227,18.4,16.94l-9.461,18.67a.364.364,0,0,0-.032.088c-.035.151-3.466,15.218-5.6,26.918" transform="translate(0 -160.308)" fill="#204c65"/>
          <path id="Path_39638" data-name="Path 39638" d="M158.7,361.592l2.453-43.447a2.12,2.12,0,0,1,2.12-2.093h25a2.12,2.12,0,0,1,2.12,2.1l.484,44.32Z" transform="translate(-132.071 -262.67)" fill="#6ecca1"/>
          <path id="Path_39639" data-name="Path 39639" d="M140.971,228.437l-.1,0a1.85,1.85,0,0,1-1.753-1.943c.525-10.2-1.749-14.751-3.749-16.767a18.183,18.183,0,0,0-5.3-3.145c-1.024.045,1.913-1.121,2.933-1.165.346-.015,2.059-1.256,4.995,1.7,3.673,3.7,5.294,10.286,4.817,19.563a1.85,1.85,0,0,1-1.846,1.755" transform="translate(-108.037 -170.426)" fill="#6ecca1"/>
          <path id="Path_39640" data-name="Path 39640" d="M293.734,219.6c-.034,0-.069,0-.1,0a1.852,1.852,0,0,1-1.744-1.95c1.114-21.14-5.515-21.765-5.294-22.762s2.982.272,3.98.495c1.342.3,5.2,1.507,5.008,22.473a1.818,1.818,0,0,1-1.846,1.747" transform="translate(-238.416 -161.591)" fill="#6ecca1"/>
          <path id="Path_39641" data-name="Path 39641" d="M234.154,366.178h-22.4a2.217,2.217,0,0,1-2.135-2.816l7.215-25.729a2.217,2.217,0,0,1,2.135-1.619h22.4a2.217,2.217,0,0,1,2.135,2.816l-7.215,25.729a2.217,2.217,0,0,1-2.135,1.619" transform="translate(-174.388 -279.251)" fill="#204c65"/>
          <path id="Path_39642" data-name="Path 39642" d="M209.867,364.676h22.4a2.61,2.61,0,0,0,2.5-1.9l7.215-25.73a2.6,2.6,0,0,0-2.505-3.3h-22.4a2.611,2.611,0,0,0-2.505,1.9l-7.214,25.729a2.6,2.6,0,0,0,2.5,3.3m29.613-30.164a1.833,1.833,0,0,1,1.765,2.328l-7.215,25.73a1.839,1.839,0,0,1-1.765,1.338h-22.4a1.833,1.833,0,0,1-1.765-2.328l7.214-25.729a1.84,1.84,0,0,1,1.765-1.338Z" transform="translate(-172.499 -277.365)" fill="#204c65"/>
          <path id="Path_39643" data-name="Path 39643" d="M15.56,380.126l13.667-6.109S27.3,397.174,54.953,386.48a19.7,19.7,0,0,1-.876-6.452c.144-3.476,2.224-.113,2.515,2.712s6.783,1.678,10.684.565,9.022-.384,0,4.592-11,2.757-11,2.757-11.522,16.122-25.857,12.7c-17.632-4.213-14.86-23.226-14.86-23.226" transform="translate(-12.795 -310.834)" fill="#f0f9f6"/>
          <path id="Path_39644" data-name="Path 39644" d="M32.513,402.323c11.419,0,20.409-11.029,21.94-13.024.928.5,3.771,1.094,11.1-2.95,5.224-2.882,5.44-4.155,5.149-4.863-.534-1.3-3.62-.954-5.44-.435-3.444.983-8.038,1.744-9.649.652a1.168,1.168,0,0,1-.547-.888c-.19-1.839-1.251-4.538-2.335-4.538h-.02c-.851.026-.907,1.4-.926,1.849a20.157,20.157,0,0,0,.785,6.238c-9.024,3.431-15.752,3.559-20,.383-5.5-4.109-4.874-12.5-4.867-12.585a.384.384,0,0,0-.54-.382L13.5,377.89a.384.384,0,0,0-.223.3A26.71,26.71,0,0,0,14.1,388.38c1.407,4.916,5.034,11.241,14.322,13.46a17.543,17.543,0,0,0,4.089.483m21.859-13.932h-.031a.388.388,0,0,0-.284.154c-.114.159-11.539,15.873-25.455,12.547-16.114-3.85-14.818-20.534-14.594-22.59l12.9-5.766c-.049,2.116.21,8.891,5.2,12.624,4.528,3.388,11.62,3.251,21.079-.407a.384.384,0,0,0,.225-.483,19.488,19.488,0,0,1-.856-6.311,2.322,2.322,0,0,1,.207-1.1A6.6,6.6,0,0,1,54.3,380.9a1.921,1.921,0,0,0,.881,1.445c2.3,1.558,8.458-.027,10.291-.55,2.242-.64,4.3-.529,4.519-.011.017.041.358,1.047-4.81,3.9-8.49,4.683-10.515,2.847-10.534,2.828a.4.4,0,0,0-.277-.115" transform="translate(-10.888 -308.948)" fill="#204c65"/>
          <path id="Path_39645" data-name="Path 39645" d="M173.286,53.509C172.1,54.59,169.8,55.91,167.991,55c-1.345-.677-2.1-2.432-2.049-4.442a2.7,2.7,0,0,1-2.022-.508c-.9-.793-.729-2.251-.694-3.209.162-4.424-2.408-5.1-1.779-8.1a7.137,7.137,0,0,1,2.694-4.028c1.75-1.327,2.935-.9,5.876-1.669,4.95-1.3,9.525,7.835,7.6,9.564-3.375,3.036-.827,7.695-4.334,10.906" transform="translate(-134.241 -27.344)" fill="#204c65"/>
          <path id="Path_39646" data-name="Path 39646" d="M201.381,66.252l-.195-.168a6.041,6.041,0,0,1-2.259-3.091c-1.105-5.385-6.038-7.34-6.266-2.4-.057,1.248-4.614,1.183-4.073,2.493,1.41,3.414,1.441,2.5-.549,3.754a1.717,1.717,0,0,0-.66.157,2.281,2.281,0,0,0-.807,3.094,2.64,2.64,0,0,0,1.62,1.451v5.395a4.979,4.979,0,0,1-3.1,4.609l-1.822.745s8.494,5.544,17.115-.543l-1.151-.516a5.8,5.8,0,0,1-3.426-5.114l-.009-1.055a4.507,4.507,0,0,0,1.66-.138c2.412-.7,3.212-3.48,2.8-6.934l.982-.528a.741.741,0,0,0,.133-1.215" transform="translate(-152.489 -47.98)" fill="#f0f9f6"/>
          <path id="Path_39647" data-name="Path 39647" d="M189.788,83.087a15.234,15.234,0,0,0,8.938-2.9.384.384,0,0,0-.064-.664L197.51,79a5.454,5.454,0,0,1-3.2-4.775l-.005-.638a4.8,4.8,0,0,0,1.379-.174c2.372-.69,3.5-3.267,3.105-7.088l.753-.4a1.126,1.126,0,0,0,.2-1.844l-.2-.168a5.741,5.741,0,0,1-2.134-2.877c-.739-3.6-3.108-5.674-4.842-5.539-.614.048-2.057.457-2.184,3.2-.015.32-1.158.64-1.842.832-1.026.288-1.913.536-2.192,1.11a.852.852,0,0,0-.01.715c.206.5.382.9.527,1.238a4.685,4.685,0,0,1,.45,1.233,2.143,2.143,0,0,1-.478.3c-.219.117-.487.26-.814.463a2.085,2.085,0,0,0-.7.186,2.664,2.664,0,0,0-.992,3.6,3.059,3.059,0,0,0,1.584,1.561v5.122a4.578,4.578,0,0,1-2.856,4.253l-1.822.745a.384.384,0,0,0-.065.677,17.384,17.384,0,0,0,8.609,2.354m7.93-3.15c-6.744,4.359-13.365,1.608-15.448.53l1.087-.444a5.345,5.345,0,0,0,3.334-4.965V69.663a.384.384,0,0,0-.279-.369,2.272,2.272,0,0,1-1.377-1.244,1.906,1.906,0,0,1,.621-2.583,1.343,1.343,0,0,1,.514-.121.381.381,0,0,0,.189-.059c.342-.216.623-.367.85-.488,1.186-.634,1.046-.957.371-2.512-.144-.331-.318-.733-.521-1.225-.024-.056-.015-.075-.009-.085.128-.264,1.079-.53,1.709-.707,1.215-.341,2.363-.662,2.4-1.537.069-1.5.607-2.4,1.476-2.473,1.428-.114,3.4,1.84,4.029,4.928a6.364,6.364,0,0,0,2.385,3.3l.2.168a.357.357,0,0,1-.064.585l-.982.528a.385.385,0,0,0-.2.384c.422,3.553-.5,5.93-2.528,6.52a4.126,4.126,0,0,1-1.518.125.384.384,0,0,0-.418.386l.009,1.055A6.228,6.228,0,0,0,197.2,79.7Zm1.777-15.568h0Z" transform="translate(-150.601 -46.096)" fill="#204c65"/>
          <path id="Path_39648" data-name="Path 39648" d="M231.617,143.211a.384.384,0,0,0,.058-.764,6.723,6.723,0,0,1-4.574-2.936.384.384,0,0,0-.666.383,7.418,7.418,0,0,0,5.124,3.313.405.405,0,0,0,.059,0" transform="translate(-188.324 -115.74)" fill="#204c65"/>
          <path id="Path_39649" data-name="Path 39649" d="M175.248,9.784a11.547,11.547,0,1,0-20.284,10.652Z" transform="translate(-127.216 -1.905)" fill="#6ecca1"/>
          <path id="Path_39650" data-name="Path 39650" d="M153.061,18.918a.38.38,0,0,0,.178-.044L173.523,8.222a.384.384,0,0,0,.181-.476,11.93,11.93,0,1,0-21.731,9.741,12.242,12.242,0,0,0,.772,1.266.384.384,0,0,0,.316.165M172.862,7.7,153.187,18.034c-.2-.3-.373-.6-.533-.9A11.163,11.163,0,0,1,172.42,6.749c.16.3.305.618.442.952" transform="translate(-125.312 -0.002)" fill="#204c65"/>
          <path id="Path_39651" data-name="Path 39651" d="M164.034,58.815l.187-2.414,20.284-10.652,4.723-.165Z" transform="translate(-136.495 -37.87)" fill="#6ecca1"/>
          <path id="Path_39652" data-name="Path 39652" d="M162.148,57.313a.383.383,0,0,0,.179-.044l25.194-13.231a.384.384,0,0,0,.193-.439.379.379,0,0,0-.385-.286l-4.723.165a.386.386,0,0,0-.165.044L162.157,54.175a.383.383,0,0,0-.2.31l-.187,2.414a.385.385,0,0,0,.383.414m23.525-13.173L162.585,56.266l.117-1.509,20.018-10.513Z" transform="translate(-134.608 -35.984)" fill="#204c65"/>
          <path id="Path_39653" data-name="Path 39653" d="M186.111,107.993a.617.617,0,0,1-.448-1.041,6.151,6.151,0,0,0,1.916-5.351.617.617,0,1,1,1.2-.3,7.317,7.317,0,0,1-2.217,6.5.615.615,0,0,1-.448.193" transform="translate(-154.305 -83.77)" fill="#6ecca1"/>
          <path id="Path_39654" data-name="Path 39654" d="M192.028,22.238a.384.384,0,0,0,.323-.592c-4.936-7.7-13.318-5.061-14.978-4.441l-1.122-1.524a.384.384,0,0,0-.619.456l1.3,1.762a.385.385,0,0,0,.465.124c.373-.165,9.2-3.937,14.31,4.038a.383.383,0,0,0,.324.177" transform="translate(-146.064 -12.898)" fill="#204c65"/>
          <path id="Path_39655" data-name="Path 39655" d="M95.564,1243.663l.978,9.321,6.3.739v-11.051Z" transform="translate(-79.39 -1032.74)" fill="#fff"/>
          <path id="Path_39656" data-name="Path 39656" d="M100.959,1252.22a.384.384,0,0,0,.384-.384v-11.051a.384.384,0,0,0-.436-.381l-7.28.992a.384.384,0,0,0-.33.421l.978,9.321a.385.385,0,0,0,.337.342l6.3.738.045,0m-.384-11V1251.4l-5.568-.652-.907-8.645Z" transform="translate(-77.505 -1030.854)" fill="#204c65"/>
          <path id="Path_39657" data-name="Path 39657" d="M73.628,1299.516a44.017,44.017,0,0,1-11.989-.005,2.817,2.817,0,0,1-2.356-3.461c1.113-4.525,3.031-13.108,6.323-17.085l.818,2.157,1.13-2.031a1,1,0,0,1,.748-.506l2.474-.313a1,1,0,0,1,1.1.786l.394,1.872.863-2.457,2.878,17.89a2.81,2.81,0,0,1-2.387,3.154" transform="translate(-49.182 -1062.308)" fill="#fff"/>
          <path id="Path_39658" data-name="Path 39658" d="M65.79,1298.423a43.348,43.348,0,0,0,6.012-.412,3.2,3.2,0,0,0,2.715-3.585l-2.879-17.9a.384.384,0,0,0-.345-.322.389.389,0,0,0-.4.255l-.408,1.16-.111-.526A1.391,1.391,0,0,0,68.849,1276l-2.474.314a1.388,1.388,0,0,0-1.036.7l-.728,1.308-.524-1.384a.384.384,0,0,0-.655-.109c-3.125,3.775-5.026,11.593-6.163,16.264l-.238.975a3.2,3.2,0,0,0,2.676,3.933,44.447,44.447,0,0,0,6.083.417m5.329-20.281,2.637,16.4a2.43,2.43,0,0,1-2.062,2.713,43.534,43.534,0,0,1-11.883-.005,2.446,2.446,0,0,1-1.687-1.047,2.4,2.4,0,0,1-.348-1.941l.239-.977c1.068-4.393,2.823-11.607,5.6-15.423l.575,1.516a.384.384,0,0,0,.7.051l1.129-2.031a.616.616,0,0,1,.461-.312l2.474-.314a.623.623,0,0,1,.68.484l.394,1.871a.385.385,0,0,0,.351.3.379.379,0,0,0,.388-.256Z" transform="translate(-47.303 -1060.423)" fill="#204c65"/>
          <path id="Path_39659" data-name="Path 39659" d="M73.75,1382.229a30.927,30.927,0,0,0,7.759-.993.384.384,0,1,0-.211-.739,29.254,29.254,0,0,1-12.693.42.384.384,0,0,0-.17.749,24.041,24.041,0,0,0,5.316.562" transform="translate(-56.604 -1147.227)" fill="#204c65"/>
          <path id="Path_39660" data-name="Path 39660" d="M90.535,1345.122h.013l5.907-.2a.384.384,0,0,0,.371-.4.392.392,0,0,0-.4-.371l-5.907.2a.384.384,0,0,0,.012.768" transform="translate(-74.894 -1117.052)" fill="#204c65"/>
          <path id="Path_39661" data-name="Path 39661" d="M269.974,1219.211l.945,13.6H278.5l.353-13.6Z" transform="translate(-224.595 -1013.251)" fill="#fff"/>
          <path id="Path_39662" data-name="Path 39662" d="M269.032,1231.311h7.583a.384.384,0,0,0,.384-.374l.353-13.6a.385.385,0,0,0-.384-.394h-8.88a.384.384,0,0,0-.383.411l.945,13.6a.384.384,0,0,0,.383.358m7.209-.768h-6.85l-.891-12.833h8.074Z" transform="translate(-222.708 -1011.364)" fill="#204c65"/>
          <path id="Path_39663" data-name="Path 39663" d="M263.848,1277.338a2.738,2.738,0,0,0,2.113,2.708c4.36,1.015,14.18,3.274,16.981,3.69,3.636.542,8.1-.572,10.025-2.7s-4.3-7.2-7.255-9.052c-4.387-2.745-8.6-8.168-10.369-8.413s-5.066,4.883-5.066,4.883l-5.393-2.265a66.759,66.759,0,0,0-1.037,11.147" transform="translate(-219.568 -1050.098)" fill="#fff"/>
          <path id="Path_39664" data-name="Path 39664" d="M282.956,1282.377c3.341,0,6.782-1.161,8.409-2.962a1.822,1.822,0,0,0,.437-1.542c-.373-2.673-5.4-6.607-7.774-8.093a41.455,41.455,0,0,1-6.093-5.083c-1.985-1.884-3.419-3.245-4.428-3.384-1.756-.239-4.412,3.5-5.265,4.786l-5.1-2.141a.384.384,0,0,0-.525.278,67.831,67.831,0,0,0-1.045,11.218,3.139,3.139,0,0,0,2.41,3.088c4.172.971,14.182,3.275,17.012,3.7a13.309,13.309,0,0,0,1.958.141m-9.634-20.309a.627.627,0,0,1,.081.005c.763.105,2.338,1.6,4,3.18a41.978,41.978,0,0,0,6.214,5.178c2.433,1.522,7.106,5.3,7.42,7.547a1.072,1.072,0,0,1-.246.921c-1.794,1.986-6.048,3.118-9.683,2.576-2.8-.417-12.788-2.716-16.951-3.685a2.366,2.366,0,0,1-1.816-2.328,69.875,69.875,0,0,1,.944-10.614l4.953,2.08a.386.386,0,0,0,.472-.146c1.282-1.992,3.525-4.716,4.61-4.716" transform="translate(-217.681 -1048.217)" fill="#204c65"/>
          <path id="Path_39665" data-name="Path 39665" d="M292.609,1345.25c2.76,0,5.188-.523,6.742-1.927a.384.384,0,1,0-.515-.57c-5.641,5.093-24.828-2.661-25.021-2.74a.384.384,0,0,0-.29.712c.6.244,11.195,4.526,19.085,4.526" transform="translate(-227.408 -1113.584)" fill="#204c65"/>
          <path id="Path_39666" data-name="Path 39666" d="M335.915,1301.556a.383.383,0,0,0,.257-.1l3.857-3.479a.384.384,0,0,0-.515-.57l-3.857,3.479a.384.384,0,0,0,.257.67" transform="translate(-279.118 -1078.13)" fill="#204c65"/>
          <path id="Path_39667" data-name="Path 39667" d="M66.319,582.857s-4.51,60.866-5.74,75.543,2.875,38.272,2.875,38.272l11.705-.615s.8-28.687,1.672-36.654c0,0,4.944-10.8,6.41-20.431S89.7,614.127,89.7,614.127s4.054,75.935,4.444,81.9c0,0,9.179.409,12.469-1.662,0,0,5.831-27.689,4.994-42.753s-1.965-69.578-1.965-69.578l-29.409.434Z" transform="translate(-50.136 -483.911)" fill="#6ecca1"/>
          <path id="Path_39668" data-name="Path 39668" d="M121.976,1037.669h3.578a.384.384,0,1,0,0-.768h-3.578a.384.384,0,1,0,0,.768" transform="translate(-101.149 -861.695)" fill="#32ae59"/>
          <path id="Path_39669" data-name="Path 39669" d="M293.709,1070.211a.384.384,0,0,0,.384-.377c.125-6.817,7.971-19.631,8.05-19.76a.384.384,0,1,0-.654-.4c-.328.532-8.036,13.123-8.165,20.148a.384.384,0,0,0,.377.391Z" transform="translate(-244.021 -872.182)" fill="#32ae59"/>
        </g>
      </g>
    </g>
  </g>
</svg>
